<?xml version="1.0" encoding="utf-8"?>
<svg xmlns="http://www.w3.org/2000/svg" xmlns:xlink="http://www.w3.org/1999/xlink" width="700" height="450" viewBox="0 0 2800 1800">
<defs>
  <clipPath id="clip890">
    <rect x="0" y="0" width="2800" height="1800"/>
  </clipPath>
</defs>
<path clip-path="url(#clip890)" d="
M0 1800 L2800 1800 L2800 -2.27374e-13 L0 -2.27374e-13  Z
  " fill="#ffffff" fill-rule="evenodd" fill-opacity="1"/>
<defs>
  <clipPath id="clip891">
    <rect x="560" y="0" width="1961" height="1800"/>
  </clipPath>
</defs>
<defs>
  <clipPath id="clip892">
    <rect x="265" y="258" width="2472" height="1351"/>
  </clipPath>
</defs>
<path clip-path="url(#clip890)" d="
M193.496 1608.36 L2737.01 1608.36 L2737.01 258.372 L193.496 258.372  Z
  " fill="#ffffff" fill-rule="evenodd" fill-opacity="1"/>
<defs>
  <clipPath id="clip893">
    <rect x="193" y="258" width="2545" height="1351"/>
  </clipPath>
</defs>
<polyline clip-path="url(#clip893)" style="stroke:#000000; stroke-linecap:round; stroke-linejoin:round; stroke-width:2; stroke-opacity:0.1; fill:none" points="
  265.482,1608.36 265.482,258.372 
  "/>
<polyline clip-path="url(#clip893)" style="stroke:#000000; stroke-linecap:round; stroke-linejoin:round; stroke-width:2; stroke-opacity:0.1; fill:none" points="
  865.367,1608.36 865.367,258.372 
  "/>
<polyline clip-path="url(#clip893)" style="stroke:#000000; stroke-linecap:round; stroke-linejoin:round; stroke-width:2; stroke-opacity:0.1; fill:none" points="
  1465.25,1608.36 1465.25,258.372 
  "/>
<polyline clip-path="url(#clip893)" style="stroke:#000000; stroke-linecap:round; stroke-linejoin:round; stroke-width:2; stroke-opacity:0.1; fill:none" points="
  2065.14,1608.36 2065.14,258.372 
  "/>
<polyline clip-path="url(#clip893)" style="stroke:#000000; stroke-linecap:round; stroke-linejoin:round; stroke-width:2; stroke-opacity:0.1; fill:none" points="
  2665.02,1608.36 2665.02,258.372 
  "/>
<polyline clip-path="url(#clip890)" style="stroke:#000000; stroke-linecap:round; stroke-linejoin:round; stroke-width:4; stroke-opacity:1; fill:none" points="
  193.496,1608.36 2737.01,1608.36 
  "/>
<polyline clip-path="url(#clip890)" style="stroke:#000000; stroke-linecap:round; stroke-linejoin:round; stroke-width:4; stroke-opacity:1; fill:none" points="
  265.482,1608.36 265.482,1589.47 
  "/>
<polyline clip-path="url(#clip890)" style="stroke:#000000; stroke-linecap:round; stroke-linejoin:round; stroke-width:4; stroke-opacity:1; fill:none" points="
  865.367,1608.36 865.367,1589.47 
  "/>
<polyline clip-path="url(#clip890)" style="stroke:#000000; stroke-linecap:round; stroke-linejoin:round; stroke-width:4; stroke-opacity:1; fill:none" points="
  1465.25,1608.36 1465.25,1589.47 
  "/>
<polyline clip-path="url(#clip890)" style="stroke:#000000; stroke-linecap:round; stroke-linejoin:round; stroke-width:4; stroke-opacity:1; fill:none" points="
  2065.14,1608.36 2065.14,1589.47 
  "/>
<polyline clip-path="url(#clip890)" style="stroke:#000000; stroke-linecap:round; stroke-linejoin:round; stroke-width:4; stroke-opacity:1; fill:none" points="
  2665.02,1608.36 2665.02,1589.47 
  "/>
<path clip-path="url(#clip890)" d="M265.482 1642.48 Q261.871 1642.48 260.042 1646.05 Q258.237 1649.59 258.237 1656.72 Q258.237 1663.82 260.042 1667.39 Q261.871 1670.93 265.482 1670.93 Q269.117 1670.93 270.922 1667.39 Q272.751 1663.82 272.751 1656.72 Q272.751 1649.59 270.922 1646.05 Q269.117 1642.48 265.482 1642.48 M265.482 1638.78 Q271.292 1638.78 274.348 1643.38 Q277.427 1647.97 277.427 1656.72 Q277.427 1665.44 274.348 1670.05 Q271.292 1674.63 265.482 1674.63 Q259.672 1674.63 256.593 1670.05 Q253.538 1665.44 253.538 1656.72 Q253.538 1647.97 256.593 1643.38 Q259.672 1638.78 265.482 1638.78 Z" fill="#000000" fill-rule="evenodd" fill-opacity="1" /><path clip-path="url(#clip890)" d="M860.02 1670.03 L876.339 1670.03 L876.339 1673.96 L854.395 1673.96 L854.395 1670.03 Q857.057 1667.27 861.64 1662.64 Q866.247 1657.99 867.427 1656.65 Q869.673 1654.13 870.552 1652.39 Q871.455 1650.63 871.455 1648.94 Q871.455 1646.19 869.511 1644.45 Q867.589 1642.71 864.488 1642.71 Q862.288 1642.71 859.835 1643.48 Q857.404 1644.24 854.626 1645.79 L854.626 1641.07 Q857.451 1639.94 859.904 1639.36 Q862.358 1638.78 864.395 1638.78 Q869.765 1638.78 872.96 1641.46 Q876.154 1644.15 876.154 1648.64 Q876.154 1650.77 875.344 1652.69 Q874.557 1654.59 872.45 1657.18 Q871.872 1657.85 868.77 1661.07 Q865.668 1664.26 860.02 1670.03 Z" fill="#000000" fill-rule="evenodd" fill-opacity="1" /><path clip-path="url(#clip890)" d="M1468.26 1643.48 L1456.46 1661.93 L1468.26 1661.93 L1468.26 1643.48 M1467.03 1639.4 L1472.91 1639.4 L1472.91 1661.93 L1477.84 1661.93 L1477.84 1665.82 L1472.91 1665.82 L1472.91 1673.96 L1468.26 1673.96 L1468.26 1665.82 L1452.66 1665.82 L1452.66 1661.3 L1467.03 1639.4 Z" fill="#000000" fill-rule="evenodd" fill-opacity="1" /><path clip-path="url(#clip890)" d="M2065.54 1654.82 Q2062.39 1654.82 2060.54 1656.97 Q2058.71 1659.13 2058.71 1662.88 Q2058.71 1666.6 2060.54 1668.78 Q2062.39 1670.93 2065.54 1670.93 Q2068.69 1670.93 2070.52 1668.78 Q2072.37 1666.6 2072.37 1662.88 Q2072.37 1659.13 2070.52 1656.97 Q2068.69 1654.82 2065.54 1654.82 M2074.82 1640.17 L2074.82 1644.43 Q2073.07 1643.59 2071.26 1643.15 Q2069.48 1642.71 2067.72 1642.71 Q2063.09 1642.71 2060.63 1645.84 Q2058.2 1648.96 2057.86 1655.28 Q2059.22 1653.27 2061.28 1652.2 Q2063.34 1651.12 2065.82 1651.12 Q2071.03 1651.12 2074.04 1654.29 Q2077.07 1657.44 2077.07 1662.88 Q2077.07 1668.2 2073.92 1671.42 Q2070.77 1674.63 2065.54 1674.63 Q2059.55 1674.63 2056.38 1670.05 Q2053.2 1665.44 2053.2 1656.72 Q2053.2 1648.52 2057.09 1643.66 Q2060.98 1638.78 2067.53 1638.78 Q2069.29 1638.78 2071.07 1639.13 Q2072.88 1639.47 2074.82 1640.17 Z" fill="#000000" fill-rule="evenodd" fill-opacity="1" /><path clip-path="url(#clip890)" d="M2665.02 1657.55 Q2661.69 1657.55 2659.77 1659.33 Q2657.87 1661.12 2657.87 1664.24 Q2657.87 1667.37 2659.77 1669.15 Q2661.69 1670.93 2665.02 1670.93 Q2668.36 1670.93 2670.28 1669.15 Q2672.2 1667.34 2672.2 1664.24 Q2672.2 1661.12 2670.28 1659.33 Q2668.38 1657.55 2665.02 1657.55 M2660.35 1655.56 Q2657.34 1654.82 2655.65 1652.76 Q2653.98 1650.7 2653.98 1647.74 Q2653.98 1643.59 2656.92 1641.19 Q2659.88 1638.78 2665.02 1638.78 Q2670.18 1638.78 2673.12 1641.19 Q2676.06 1643.59 2676.06 1647.74 Q2676.06 1650.7 2674.37 1652.76 Q2672.71 1654.82 2669.72 1655.56 Q2673.1 1656.35 2674.98 1658.64 Q2676.87 1660.93 2676.87 1664.24 Q2676.87 1669.26 2673.79 1671.95 Q2670.74 1674.63 2665.02 1674.63 Q2659.3 1674.63 2656.23 1671.95 Q2653.17 1669.26 2653.17 1664.24 Q2653.17 1660.93 2655.07 1658.64 Q2656.97 1656.35 2660.35 1655.56 M2658.63 1648.18 Q2658.63 1650.86 2660.3 1652.37 Q2661.99 1653.87 2665.02 1653.87 Q2668.03 1653.87 2669.72 1652.37 Q2671.43 1650.86 2671.43 1648.18 Q2671.43 1645.49 2669.72 1643.99 Q2668.03 1642.48 2665.02 1642.48 Q2661.99 1642.48 2660.3 1643.99 Q2658.63 1645.49 2658.63 1648.18 Z" fill="#000000" fill-rule="evenodd" fill-opacity="1" /><path clip-path="url(#clip890)" d="M1175.41 1718.75 L1175.41 1724.22 Q1172.93 1722.85 1170.42 1722.19 Q1167.93 1721.49 1165.39 1721.49 Q1159.69 1721.49 1156.54 1725.11 Q1153.39 1728.71 1153.39 1735.24 Q1153.39 1741.76 1156.54 1745.39 Q1159.69 1748.99 1165.39 1748.99 Q1167.93 1748.99 1170.42 1748.32 Q1172.93 1747.62 1175.41 1746.25 L1175.41 1751.66 Q1172.96 1752.8 1170.32 1753.38 Q1167.71 1753.95 1164.75 1753.95 Q1156.7 1753.95 1151.96 1748.89 Q1147.21 1743.83 1147.21 1735.24 Q1147.21 1726.51 1151.99 1721.52 Q1156.79 1716.52 1165.13 1716.52 Q1167.84 1716.52 1170.42 1717.09 Q1172.99 1717.63 1175.41 1718.75 Z" fill="#000000" fill-rule="evenodd" fill-opacity="1" /><path clip-path="url(#clip890)" d="M1201.8 1735.11 Q1194.7 1735.11 1191.96 1736.73 Q1189.23 1738.35 1189.23 1742.27 Q1189.23 1745.39 1191.26 1747.23 Q1193.33 1749.05 1196.87 1749.05 Q1201.74 1749.05 1204.66 1745.61 Q1207.62 1742.14 1207.62 1736.41 L1207.62 1735.11 L1201.8 1735.11 M1213.48 1732.69 L1213.48 1753.03 L1207.62 1753.03 L1207.62 1747.62 Q1205.62 1750.86 1202.63 1752.42 Q1199.64 1753.95 1195.31 1753.95 Q1189.83 1753.95 1186.59 1750.9 Q1183.37 1747.81 1183.37 1742.65 Q1183.37 1736.64 1187.38 1733.58 Q1191.42 1730.52 1199.41 1730.52 L1207.62 1730.52 L1207.62 1729.95 Q1207.62 1725.91 1204.95 1723.71 Q1202.31 1721.49 1197.5 1721.49 Q1194.45 1721.49 1191.55 1722.22 Q1188.65 1722.95 1185.98 1724.41 L1185.98 1719 Q1189.2 1717.76 1192.22 1717.16 Q1195.24 1716.52 1198.11 1716.52 Q1205.84 1716.52 1209.66 1720.53 Q1213.48 1724.54 1213.48 1732.69 Z" fill="#000000" fill-rule="evenodd" fill-opacity="1" /><path clip-path="url(#clip890)" d="M1246.2 1722.85 Q1245.21 1722.28 1244.04 1722.03 Q1242.89 1721.74 1241.49 1721.74 Q1236.52 1721.74 1233.85 1724.99 Q1231.21 1728.2 1231.21 1734.25 L1231.21 1753.03 L1225.32 1753.03 L1225.32 1717.38 L1231.21 1717.38 L1231.21 1722.92 Q1233.06 1719.67 1236.02 1718.11 Q1238.98 1716.52 1243.21 1716.52 Q1243.81 1716.52 1244.55 1716.62 Q1245.28 1716.68 1246.17 1716.84 L1246.2 1722.85 Z" fill="#000000" fill-rule="evenodd" fill-opacity="1" /><path clip-path="url(#clip890)" d="M1271.85 1722.85 Q1270.87 1722.28 1269.69 1722.03 Q1268.54 1721.74 1267.14 1721.74 Q1262.18 1721.74 1259.5 1724.99 Q1256.86 1728.2 1256.86 1734.25 L1256.86 1753.03 L1250.97 1753.03 L1250.97 1717.38 L1256.86 1717.38 L1256.86 1722.92 Q1258.71 1719.67 1261.67 1718.11 Q1264.63 1716.52 1268.86 1716.52 Q1269.47 1716.52 1270.2 1716.62 Q1270.93 1716.68 1271.82 1716.84 L1271.85 1722.85 Z" fill="#000000" fill-rule="evenodd" fill-opacity="1" /><path clip-path="url(#clip890)" d="M1292.83 1756.34 Q1290.35 1762.7 1287.99 1764.65 Q1285.64 1766.59 1281.69 1766.59 L1277.01 1766.59 L1277.01 1761.69 L1280.45 1761.69 Q1282.87 1761.69 1284.2 1760.54 Q1285.54 1759.39 1287.16 1755.13 L1288.21 1752.45 L1273.8 1717.38 L1280 1717.38 L1291.14 1745.26 L1302.28 1717.38 L1308.49 1717.38 L1292.83 1756.34 Z" fill="#000000" fill-rule="evenodd" fill-opacity="1" /><path clip-path="url(#clip890)" d="M1316.57 1717.38 L1322.43 1717.38 L1322.43 1753.03 L1316.57 1753.03 L1316.57 1717.38 M1316.57 1703.5 L1322.43 1703.5 L1322.43 1710.92 L1316.57 1710.92 L1316.57 1703.5 Z" fill="#000000" fill-rule="evenodd" fill-opacity="1" /><path clip-path="url(#clip890)" d="M1364.32 1731.51 L1364.32 1753.03 L1358.46 1753.03 L1358.46 1731.7 Q1358.46 1726.64 1356.49 1724.13 Q1354.51 1721.61 1350.57 1721.61 Q1345.82 1721.61 1343.09 1724.64 Q1340.35 1727.66 1340.35 1732.88 L1340.35 1753.03 L1334.46 1753.03 L1334.46 1717.38 L1340.35 1717.38 L1340.35 1722.92 Q1342.45 1719.7 1345.28 1718.11 Q1348.15 1716.52 1351.87 1716.52 Q1358.01 1716.52 1361.17 1720.34 Q1364.32 1724.13 1364.32 1731.51 Z" fill="#000000" fill-rule="evenodd" fill-opacity="1" /><path clip-path="url(#clip890)" d="M1399.45 1734.79 Q1399.45 1728.42 1396.81 1724.92 Q1394.2 1721.42 1389.46 1721.42 Q1384.75 1721.42 1382.11 1724.92 Q1379.5 1728.42 1379.5 1734.79 Q1379.5 1741.12 1382.11 1744.63 Q1384.75 1748.13 1389.46 1748.13 Q1394.2 1748.13 1396.81 1744.63 Q1399.45 1741.12 1399.45 1734.79 M1405.31 1748.6 Q1405.31 1757.71 1401.27 1762.13 Q1397.23 1766.59 1388.89 1766.59 Q1385.8 1766.59 1383.06 1766.11 Q1380.33 1765.66 1377.75 1764.71 L1377.75 1759.01 Q1380.33 1760.41 1382.84 1761.08 Q1385.35 1761.75 1387.96 1761.75 Q1393.73 1761.75 1396.59 1758.73 Q1399.45 1755.73 1399.45 1749.65 L1399.45 1746.76 Q1397.64 1749.91 1394.81 1751.47 Q1391.98 1753.03 1388.03 1753.03 Q1381.47 1753.03 1377.46 1748.03 Q1373.45 1743.03 1373.45 1734.79 Q1373.45 1726.51 1377.46 1721.52 Q1381.47 1716.52 1388.03 1716.52 Q1391.98 1716.52 1394.81 1718.08 Q1397.64 1719.64 1399.45 1722.79 L1399.45 1717.38 L1405.31 1717.38 L1405.31 1748.6 Z" fill="#000000" fill-rule="evenodd" fill-opacity="1" /><path clip-path="url(#clip890)" d="M1463.75 1718.75 L1463.75 1724.22 Q1461.27 1722.85 1458.75 1722.19 Q1456.27 1721.49 1453.72 1721.49 Q1448.03 1721.49 1444.87 1725.11 Q1441.72 1728.71 1441.72 1735.24 Q1441.72 1741.76 1444.87 1745.39 Q1448.03 1748.99 1453.72 1748.99 Q1456.27 1748.99 1458.75 1748.32 Q1461.27 1747.62 1463.75 1746.25 L1463.75 1751.66 Q1461.3 1752.8 1458.66 1753.38 Q1456.05 1753.95 1453.09 1753.95 Q1445.03 1753.95 1440.29 1748.89 Q1435.55 1743.83 1435.55 1735.24 Q1435.55 1726.51 1440.32 1721.52 Q1445.13 1716.52 1453.47 1716.52 Q1456.17 1716.52 1458.75 1717.09 Q1461.33 1717.63 1463.75 1718.75 Z" fill="#000000" fill-rule="evenodd" fill-opacity="1" /><path clip-path="url(#clip890)" d="M1490.13 1735.11 Q1483.04 1735.11 1480.3 1736.73 Q1477.56 1738.35 1477.56 1742.27 Q1477.56 1745.39 1479.6 1747.23 Q1481.67 1749.05 1485.2 1749.05 Q1490.07 1749.05 1493 1745.61 Q1495.96 1742.14 1495.96 1736.41 L1495.96 1735.11 L1490.13 1735.11 M1501.82 1732.69 L1501.82 1753.03 L1495.96 1753.03 L1495.96 1747.62 Q1493.95 1750.86 1490.96 1752.42 Q1487.97 1753.95 1483.64 1753.95 Q1478.17 1753.95 1474.92 1750.9 Q1471.71 1747.81 1471.71 1742.65 Q1471.71 1736.64 1475.72 1733.58 Q1479.76 1730.52 1487.75 1730.52 L1495.96 1730.52 L1495.96 1729.95 Q1495.96 1725.91 1493.29 1723.71 Q1490.64 1721.49 1485.84 1721.49 Q1482.78 1721.49 1479.89 1722.22 Q1476.99 1722.95 1474.32 1724.41 L1474.32 1719 Q1477.53 1717.76 1480.55 1717.16 Q1483.58 1716.52 1486.44 1716.52 Q1494.18 1716.52 1498 1720.53 Q1501.82 1724.54 1501.82 1732.69 Z" fill="#000000" fill-rule="evenodd" fill-opacity="1" /><path clip-path="url(#clip890)" d="M1519.54 1747.68 L1519.54 1766.59 L1513.66 1766.59 L1513.66 1717.38 L1519.54 1717.38 L1519.54 1722.79 Q1521.39 1719.61 1524.19 1718.08 Q1527.02 1716.52 1530.94 1716.52 Q1537.43 1716.52 1541.47 1721.68 Q1545.55 1726.83 1545.55 1735.24 Q1545.55 1743.64 1541.47 1748.79 Q1537.43 1753.95 1530.94 1753.95 Q1527.02 1753.95 1524.19 1752.42 Q1521.39 1750.86 1519.54 1747.68 M1539.47 1735.24 Q1539.47 1728.77 1536.79 1725.11 Q1534.15 1721.42 1529.51 1721.42 Q1524.86 1721.42 1522.19 1725.11 Q1519.54 1728.77 1519.54 1735.24 Q1519.54 1741.7 1522.19 1745.39 Q1524.86 1749.05 1529.51 1749.05 Q1534.15 1749.05 1536.79 1745.39 Q1539.47 1741.7 1539.47 1735.24 Z" fill="#000000" fill-rule="evenodd" fill-opacity="1" /><path clip-path="url(#clip890)" d="M1571.46 1735.11 Q1564.36 1735.11 1561.62 1736.73 Q1558.88 1738.35 1558.88 1742.27 Q1558.88 1745.39 1560.92 1747.23 Q1562.99 1749.05 1566.52 1749.05 Q1571.39 1749.05 1574.32 1745.61 Q1577.28 1742.14 1577.28 1736.41 L1577.28 1735.11 L1571.46 1735.11 M1583.14 1732.69 L1583.14 1753.03 L1577.28 1753.03 L1577.28 1747.62 Q1575.28 1750.86 1572.28 1752.42 Q1569.29 1753.95 1564.96 1753.95 Q1559.49 1753.95 1556.24 1750.9 Q1553.03 1747.81 1553.03 1742.65 Q1553.03 1736.64 1557.04 1733.58 Q1561.08 1730.52 1569.07 1730.52 L1577.28 1730.52 L1577.28 1729.95 Q1577.28 1725.91 1574.61 1723.71 Q1571.97 1721.49 1567.16 1721.49 Q1564.1 1721.49 1561.21 1722.22 Q1558.31 1722.95 1555.64 1724.41 L1555.64 1719 Q1558.85 1717.76 1561.88 1717.16 Q1564.9 1716.52 1567.76 1716.52 Q1575.5 1716.52 1579.32 1720.53 Q1583.14 1724.54 1583.14 1732.69 Z" fill="#000000" fill-rule="evenodd" fill-opacity="1" /><path clip-path="url(#clip890)" d="M1620.85 1718.75 L1620.85 1724.22 Q1618.37 1722.85 1615.86 1722.19 Q1613.37 1721.49 1610.83 1721.49 Q1605.13 1721.49 1601.98 1725.11 Q1598.83 1728.71 1598.83 1735.24 Q1598.83 1741.76 1601.98 1745.39 Q1605.13 1748.99 1610.83 1748.99 Q1613.37 1748.99 1615.86 1748.32 Q1618.37 1747.62 1620.85 1746.25 L1620.85 1751.66 Q1618.4 1752.8 1615.76 1753.38 Q1613.15 1753.95 1610.19 1753.95 Q1602.14 1753.95 1597.4 1748.89 Q1592.65 1743.83 1592.65 1735.24 Q1592.65 1726.51 1597.43 1721.52 Q1602.23 1716.52 1610.57 1716.52 Q1613.28 1716.52 1615.86 1717.09 Q1618.44 1717.63 1620.85 1718.75 Z" fill="#000000" fill-rule="evenodd" fill-opacity="1" /><path clip-path="url(#clip890)" d="M1631.04 1717.38 L1636.9 1717.38 L1636.9 1753.03 L1631.04 1753.03 L1631.04 1717.38 M1631.04 1703.5 L1636.9 1703.5 L1636.9 1710.92 L1631.04 1710.92 L1631.04 1703.5 Z" fill="#000000" fill-rule="evenodd" fill-opacity="1" /><path clip-path="url(#clip890)" d="M1654.94 1707.26 L1654.94 1717.38 L1667.01 1717.38 L1667.01 1721.93 L1654.94 1721.93 L1654.94 1741.28 Q1654.94 1745.64 1656.12 1746.88 Q1657.33 1748.13 1660.99 1748.13 L1667.01 1748.13 L1667.01 1753.03 L1660.99 1753.03 Q1654.21 1753.03 1651.63 1750.51 Q1649.05 1747.97 1649.05 1741.28 L1649.05 1721.93 L1644.76 1721.93 L1644.76 1717.38 L1649.05 1717.38 L1649.05 1707.26 L1654.94 1707.26 Z" fill="#000000" fill-rule="evenodd" fill-opacity="1" /><path clip-path="url(#clip890)" d="M1689.54 1756.34 Q1687.06 1762.7 1684.7 1764.65 Q1682.35 1766.59 1678.4 1766.59 L1673.72 1766.59 L1673.72 1761.69 L1677.16 1761.69 Q1679.58 1761.69 1680.91 1760.54 Q1682.25 1759.39 1683.87 1755.13 L1684.92 1752.45 L1670.51 1717.38 L1676.71 1717.38 L1687.85 1745.26 L1698.99 1717.38 L1705.2 1717.38 L1689.54 1756.34 Z" fill="#000000" fill-rule="evenodd" fill-opacity="1" /><path clip-path="url(#clip890)" d="M1784 1708.71 Q1784 1709.13 1783.9 1709.42 Q1783.8 1709.68 1783.58 1709.81 Q1783.35 1709.94 1783.22 1709.97 Q1783.09 1710 1782.8 1710.03 Q1781.42 1710.16 1780.45 1710.39 Q1779.52 1710.61 1777.2 1711.77 Q1774.91 1712.93 1772.05 1715.02 L1760.52 1723.95 L1758.59 1725.46 Q1758.59 1725.56 1758.65 1725.75 Q1758.71 1725.91 1758.78 1726.14 Q1758.88 1726.33 1758.91 1726.39 L1768.28 1748 Q1769.02 1749.74 1769.92 1750.35 Q1770.82 1750.97 1772.85 1751 Q1773.18 1751 1773.3 1751.03 Q1773.47 1751.03 1773.69 1751.1 Q1773.95 1751.13 1774.04 1751.29 Q1774.17 1751.45 1774.17 1751.71 Q1774.17 1753.03 1772.98 1753.03 Q1772.24 1753.03 1769.73 1752.93 Q1767.22 1752.83 1766.51 1752.83 Q1765.19 1752.83 1762.48 1752.93 Q1759.78 1753.03 1758.46 1753.03 Q1757.52 1753.03 1757.52 1752.29 Q1757.52 1751.68 1757.75 1751.39 Q1758.01 1751.06 1758.23 1751.03 Q1758.46 1751 1758.97 1751 Q1759.36 1751 1759.78 1750.97 Q1760.23 1750.9 1760.87 1750.74 Q1761.55 1750.55 1761.97 1750.1 Q1762.42 1749.61 1762.42 1748.94 Q1762.42 1748.39 1761.61 1746.62 L1753.98 1728.87 L1744.16 1736.54 L1741.52 1746.91 Q1741.45 1747.3 1741.29 1747.97 Q1741.13 1748.65 1741 1749.13 Q1740.91 1749.61 1740.91 1749.81 Q1740.91 1750.23 1741.16 1750.48 Q1741.45 1750.74 1742.16 1750.87 Q1742.87 1750.97 1743.42 1751 Q1744 1751 1745.19 1751 Q1746.67 1751 1746.93 1751.26 Q1747.06 1751.42 1747.06 1751.71 Q1747.06 1752.16 1746.93 1752.48 Q1746.8 1752.77 1746.54 1752.87 Q1746.32 1752.96 1746.15 1753 Q1745.99 1753.03 1745.74 1753.03 Q1745.06 1753.03 1743.61 1752.96 Q1742.19 1752.9 1741.45 1752.9 L1737.23 1752.83 L1728.86 1753.03 Q1727.86 1753.03 1727.86 1752.22 Q1727.86 1751.61 1728.12 1751.35 Q1728.38 1751.06 1728.67 1751.03 Q1728.96 1751 1729.7 1751 Q1731.31 1751 1732.27 1750.9 Q1733.24 1750.81 1733.85 1750.68 Q1734.5 1750.52 1734.82 1750.06 Q1735.17 1749.61 1735.33 1749.23 Q1735.49 1748.81 1735.72 1747.87 L1744.54 1712.45 Q1744.8 1711.39 1744.8 1711.22 Q1744.8 1710.68 1744.48 1710.48 Q1744.19 1710.26 1743.35 1710.16 Q1741.74 1710.03 1740.52 1710.03 Q1739.71 1710.03 1739.39 1710 Q1739.1 1709.97 1738.84 1709.81 Q1738.62 1709.61 1738.62 1709.23 Q1738.62 1707.97 1739.94 1707.97 L1748.44 1708.16 L1756.88 1707.97 Q1757.81 1707.97 1757.81 1708.71 Q1757.81 1709.65 1757.36 1709.84 Q1756.94 1710.03 1755.56 1710.03 Q1753.14 1710.03 1752.05 1710.35 Q1750.99 1710.64 1750.66 1711.16 Q1750.37 1711.64 1750.02 1713.06 L1744.74 1734.22 L1770.47 1714.45 Q1772.85 1712.45 1772.85 1711.42 Q1772.85 1710.74 1772.37 1710.45 Q1771.92 1710.13 1770.79 1710.03 Q1769.99 1709.9 1769.99 1709.29 Q1769.99 1708.68 1770.21 1708.39 Q1770.47 1708.07 1770.66 1708.04 Q1770.89 1707.97 1771.24 1707.97 Q1772.43 1707.97 1774.91 1708.07 Q1777.39 1708.16 1778.59 1708.16 Q1779.39 1708.16 1780.97 1708.07 Q1782.55 1707.97 1783.26 1707.97 Q1783.61 1707.97 1783.8 1708.23 Q1784 1708.45 1784 1708.71 Z" fill="#000000" fill-rule="evenodd" fill-opacity="1" /><polyline clip-path="url(#clip893)" style="stroke:#000000; stroke-linecap:round; stroke-linejoin:round; stroke-width:2; stroke-opacity:0.1; fill:none" points="
  193.496,1570.16 2737.01,1570.16 
  "/>
<polyline clip-path="url(#clip893)" style="stroke:#000000; stroke-linecap:round; stroke-linejoin:round; stroke-width:2; stroke-opacity:0.1; fill:none" points="
  193.496,1204.56 2737.01,1204.56 
  "/>
<polyline clip-path="url(#clip893)" style="stroke:#000000; stroke-linecap:round; stroke-linejoin:round; stroke-width:2; stroke-opacity:0.1; fill:none" points="
  193.496,838.968 2737.01,838.968 
  "/>
<polyline clip-path="url(#clip893)" style="stroke:#000000; stroke-linecap:round; stroke-linejoin:round; stroke-width:2; stroke-opacity:0.1; fill:none" points="
  193.496,473.375 2737.01,473.375 
  "/>
<polyline clip-path="url(#clip890)" style="stroke:#000000; stroke-linecap:round; stroke-linejoin:round; stroke-width:4; stroke-opacity:1; fill:none" points="
  193.496,1608.36 193.496,258.372 
  "/>
<polyline clip-path="url(#clip890)" style="stroke:#000000; stroke-linecap:round; stroke-linejoin:round; stroke-width:4; stroke-opacity:1; fill:none" points="
  193.496,1570.16 212.394,1570.16 
  "/>
<polyline clip-path="url(#clip890)" style="stroke:#000000; stroke-linecap:round; stroke-linejoin:round; stroke-width:4; stroke-opacity:1; fill:none" points="
  193.496,1204.56 212.394,1204.56 
  "/>
<polyline clip-path="url(#clip890)" style="stroke:#000000; stroke-linecap:round; stroke-linejoin:round; stroke-width:4; stroke-opacity:1; fill:none" points="
  193.496,838.968 212.394,838.968 
  "/>
<polyline clip-path="url(#clip890)" style="stroke:#000000; stroke-linecap:round; stroke-linejoin:round; stroke-width:4; stroke-opacity:1; fill:none" points="
  193.496,473.375 212.394,473.375 
  "/>
<path clip-path="url(#clip890)" d="M139.552 1555.95 Q135.941 1555.95 134.112 1559.52 Q132.306 1563.06 132.306 1570.19 Q132.306 1577.3 134.112 1580.86 Q135.941 1584.4 139.552 1584.4 Q143.186 1584.4 144.992 1580.86 Q146.82 1577.3 146.82 1570.19 Q146.82 1563.06 144.992 1559.52 Q143.186 1555.95 139.552 1555.95 M139.552 1552.25 Q145.362 1552.25 148.417 1556.86 Q151.496 1561.44 151.496 1570.19 Q151.496 1578.92 148.417 1583.52 Q145.362 1588.11 139.552 1588.11 Q133.742 1588.11 130.663 1583.52 Q127.607 1578.92 127.607 1570.19 Q127.607 1561.44 130.663 1556.86 Q133.742 1552.25 139.552 1552.25 Z" fill="#000000" fill-rule="evenodd" fill-opacity="1" /><path clip-path="url(#clip890)" d="M135.177 1217.91 L151.496 1217.91 L151.496 1221.84 L129.552 1221.84 L129.552 1217.91 Q132.214 1215.15 136.797 1210.52 Q141.404 1205.87 142.584 1204.53 Q144.829 1202 145.709 1200.27 Q146.612 1198.51 146.612 1196.82 Q146.612 1194.06 144.667 1192.33 Q142.746 1190.59 139.644 1190.59 Q137.445 1190.59 134.992 1191.36 Q132.561 1192.12 129.783 1193.67 L129.783 1188.95 Q132.607 1187.81 135.061 1187.24 Q137.515 1186.66 139.552 1186.66 Q144.922 1186.66 148.116 1189.34 Q151.311 1192.03 151.311 1196.52 Q151.311 1198.65 150.501 1200.57 Q149.714 1202.47 147.607 1205.06 Q147.029 1205.73 143.927 1208.95 Q140.825 1212.14 135.177 1217.91 Z" fill="#000000" fill-rule="evenodd" fill-opacity="1" /><path clip-path="url(#clip890)" d="M141.913 825.762 L130.107 844.211 L141.913 844.211 L141.913 825.762 M140.686 821.688 L146.566 821.688 L146.566 844.211 L151.496 844.211 L151.496 848.1 L146.566 848.1 L146.566 856.248 L141.913 856.248 L141.913 848.1 L126.311 848.1 L126.311 843.586 L140.686 821.688 Z" fill="#000000" fill-rule="evenodd" fill-opacity="1" /><path clip-path="url(#clip890)" d="M139.968 471.511 Q136.82 471.511 134.968 473.664 Q133.14 475.817 133.14 479.567 Q133.14 483.294 134.968 485.469 Q136.82 487.622 139.968 487.622 Q143.117 487.622 144.945 485.469 Q146.797 483.294 146.797 479.567 Q146.797 475.817 144.945 473.664 Q143.117 471.511 139.968 471.511 M149.251 456.858 L149.251 461.118 Q147.491 460.284 145.686 459.845 Q143.904 459.405 142.144 459.405 Q137.515 459.405 135.061 462.53 Q132.63 465.655 132.283 471.974 Q133.649 469.96 135.709 468.895 Q137.769 467.808 140.246 467.808 Q145.454 467.808 148.464 470.979 Q151.496 474.127 151.496 479.567 Q151.496 484.891 148.348 488.108 Q145.2 491.326 139.968 491.326 Q133.973 491.326 130.802 486.743 Q127.63 482.136 127.63 473.409 Q127.63 465.215 131.519 460.354 Q135.408 455.47 141.959 455.47 Q143.718 455.47 145.501 455.817 Q147.306 456.164 149.251 456.858 Z" fill="#000000" fill-rule="evenodd" fill-opacity="1" /><path clip-path="url(#clip890)" d="M64.7079 1210.59 L83.614 1210.59 L83.614 1216.48 L34.4071 1216.48 L34.4071 1210.59 L39.8179 1210.59 Q36.6351 1208.75 35.1073 1205.95 Q33.5477 1203.11 33.5477 1199.2 Q33.5477 1192.71 38.7039 1188.66 Q43.8602 1184.59 52.2629 1184.59 Q60.6656 1184.59 65.8219 1188.66 Q70.9781 1192.71 70.9781 1199.2 Q70.9781 1203.11 69.4503 1205.95 Q67.8907 1208.75 64.7079 1210.59 M52.2629 1190.67 Q45.8017 1190.67 42.1414 1193.34 Q38.4493 1195.98 38.4493 1200.63 Q38.4493 1205.28 42.1414 1207.95 Q45.8017 1210.59 52.2629 1210.59 Q58.7241 1210.59 62.4162 1207.95 Q66.0765 1205.28 66.0765 1200.63 Q66.0765 1195.98 62.4162 1193.34 Q58.7241 1190.67 52.2629 1190.67 Z" fill="#000000" fill-rule="evenodd" fill-opacity="1" /><path clip-path="url(#clip890)" d="M39.8816 1154.23 Q39.3087 1155.21 39.0541 1156.39 Q38.7676 1157.54 38.7676 1158.94 Q38.7676 1163.9 42.0141 1166.58 Q45.2288 1169.22 51.2762 1169.22 L70.055 1169.22 L70.055 1175.11 L34.4071 1175.11 L34.4071 1169.22 L39.9453 1169.22 Q36.6987 1167.37 35.1391 1164.41 Q33.5477 1161.45 33.5477 1157.22 Q33.5477 1156.61 33.6432 1155.88 Q33.7069 1155.15 33.866 1154.26 L39.8816 1154.23 Z" fill="#000000" fill-rule="evenodd" fill-opacity="1" /><path clip-path="url(#clip890)" d="M50.767 1119.02 L53.6315 1119.02 L53.6315 1145.95 Q59.6789 1145.57 62.8618 1142.32 Q66.0128 1139.04 66.0128 1133.22 Q66.0128 1129.85 65.1853 1126.69 Q64.3577 1123.51 62.7027 1120.39 L68.2408 1120.39 Q69.5776 1123.54 70.2778 1126.85 Q70.9781 1130.16 70.9781 1133.57 Q70.9781 1142.1 66.0128 1147.1 Q61.0476 1152.06 52.5812 1152.06 Q43.8283 1152.06 38.7039 1147.35 Q33.5477 1142.61 33.5477 1134.59 Q33.5477 1127.39 38.1947 1123.22 Q42.8098 1119.02 50.767 1119.02 M49.0482 1124.88 Q44.2421 1124.94 41.3775 1127.59 Q38.513 1130.2 38.513 1134.52 Q38.513 1139.43 41.2821 1142.39 Q44.0511 1145.31 49.08 1145.76 L49.0482 1124.88 Z" fill="#000000" fill-rule="evenodd" fill-opacity="1" /><path clip-path="url(#clip890)" d="M39.8179 1085.95 L20.5298 1085.95 L20.5298 1080.1 L70.055 1080.1 L70.055 1085.95 L64.7079 1085.95 Q67.8907 1087.8 69.4503 1090.63 Q70.9781 1093.43 70.9781 1097.38 Q70.9781 1103.84 65.8219 1107.92 Q60.6656 1111.96 52.2629 1111.96 Q43.8602 1111.96 38.7039 1107.92 Q33.5477 1103.84 33.5477 1097.38 Q33.5477 1093.43 35.1073 1090.63 Q36.6351 1087.8 39.8179 1085.95 M52.2629 1105.91 Q58.7241 1105.91 62.4162 1103.27 Q66.0765 1100.59 66.0765 1095.95 Q66.0765 1091.3 62.4162 1088.63 Q58.7241 1085.95 52.2629 1085.95 Q45.8017 1085.95 42.1414 1088.63 Q38.4493 1091.3 38.4493 1095.95 Q38.4493 1100.59 42.1414 1103.27 Q45.8017 1105.91 52.2629 1105.91 Z" fill="#000000" fill-rule="evenodd" fill-opacity="1" /><path clip-path="url(#clip890)" d="M52.1356 1051.83 Q52.1356 1058.93 53.7588 1061.67 Q55.3821 1064.41 59.297 1064.41 Q62.4162 1064.41 64.2623 1062.37 Q66.0765 1060.3 66.0765 1056.77 Q66.0765 1051.9 62.639 1048.97 Q59.1697 1046.01 53.4406 1046.01 L52.1356 1046.01 L52.1356 1051.83 M49.7166 1040.15 L70.055 1040.15 L70.055 1046.01 L64.6442 1046.01 Q67.8907 1048.01 69.4503 1051.01 Q70.9781 1054 70.9781 1058.33 Q70.9781 1063.8 67.9225 1067.05 Q64.8352 1070.26 59.6789 1070.26 Q53.6634 1070.26 50.6078 1066.25 Q47.5523 1062.21 47.5523 1054.22 L47.5523 1046.01 L46.9794 1046.01 Q42.9371 1046.01 40.741 1048.68 Q38.513 1051.32 38.513 1056.13 Q38.513 1059.19 39.245 1062.08 Q39.9771 1064.98 41.4412 1067.65 L36.0303 1067.65 Q34.789 1064.44 34.1843 1061.41 Q33.5477 1058.39 33.5477 1055.53 Q33.5477 1047.79 37.5581 1043.97 Q41.5685 1040.15 49.7166 1040.15 Z" fill="#000000" fill-rule="evenodd" fill-opacity="1" /><path clip-path="url(#clip890)" d="M24.2856 1022.3 L34.4071 1022.3 L34.4071 1010.23 L38.9586 1010.23 L38.9586 1022.3 L58.3103 1022.3 Q62.6708 1022.3 63.9121 1021.12 Q65.1535 1019.91 65.1535 1016.25 L65.1535 1010.23 L70.055 1010.23 L70.055 1016.25 Q70.055 1023.03 67.5406 1025.61 Q64.9943 1028.18 58.3103 1028.18 L38.9586 1028.18 L38.9586 1032.48 L34.4071 1032.48 L34.4071 1028.18 L24.2856 1028.18 L24.2856 1022.3 Z" fill="#000000" fill-rule="evenodd" fill-opacity="1" /><path clip-path="url(#clip890)" d="M38.513 988.718 Q38.513 993.428 42.2051 996.165 Q45.8654 998.903 52.2629 998.903 Q58.6604 998.903 62.3525 996.197 Q66.0128 993.46 66.0128 988.718 Q66.0128 984.039 62.3207 981.302 Q58.6286 978.564 52.2629 978.564 Q45.929 978.564 42.2369 981.302 Q38.513 984.039 38.513 988.718 M33.5477 988.718 Q33.5477 981.079 38.513 976.718 Q43.4782 972.358 52.2629 972.358 Q61.0157 972.358 66.0128 976.718 Q70.9781 981.079 70.9781 988.718 Q70.9781 996.388 66.0128 1000.75 Q61.0157 1005.08 52.2629 1005.08 Q43.4782 1005.08 38.513 1000.75 Q33.5477 996.388 33.5477 988.718 Z" fill="#000000" fill-rule="evenodd" fill-opacity="1" /><path clip-path="url(#clip890)" d="M39.8816 941.993 Q39.3087 942.98 39.0541 944.158 Q38.7676 945.303 38.7676 946.704 Q38.7676 951.669 42.0141 954.343 Q45.2288 956.985 51.2762 956.985 L70.055 956.985 L70.055 962.873 L34.4071 962.873 L34.4071 956.985 L39.9453 956.985 Q36.6987 955.138 35.1391 952.178 Q33.5477 949.218 33.5477 944.985 Q33.5477 944.38 33.6432 943.648 Q33.7069 942.916 33.866 942.025 L39.8816 941.993 Z" fill="#000000" fill-rule="evenodd" fill-opacity="1" /><path clip-path="url(#clip890)" d="M35.4574 913.125 L40.9956 913.125 Q39.7225 915.607 39.0859 918.281 Q38.4493 920.955 38.4493 923.819 Q38.4493 928.18 39.7861 930.376 Q41.1229 932.54 43.7965 932.54 Q45.8335 932.54 47.0112 930.981 Q48.157 929.421 49.2074 924.71 L49.653 922.705 Q50.9898 916.467 53.4406 913.857 Q55.8595 911.215 60.22 911.215 Q65.1853 911.215 68.0817 915.162 Q70.9781 919.077 70.9781 925.952 Q70.9781 928.816 70.4052 931.935 Q69.8641 935.023 68.7501 938.46 L62.7027 938.46 Q64.3896 935.214 65.2489 932.063 Q66.0765 928.912 66.0765 925.824 Q66.0765 921.687 64.676 919.459 Q63.2437 917.231 60.6656 917.231 Q58.2785 917.231 57.0053 918.854 Q55.7322 920.445 54.5546 925.888 L54.0771 927.925 Q52.9313 933.368 50.576 935.787 Q48.1888 938.206 44.0511 938.206 Q39.0222 938.206 36.285 934.641 Q33.5477 931.076 33.5477 924.519 Q33.5477 921.273 34.0251 918.408 Q34.5026 915.544 35.4574 913.125 Z" fill="#000000" fill-rule="evenodd" fill-opacity="1" /><path clip-path="url(#clip890)" d="M39.8179 857.711 L20.5298 857.711 L20.5298 851.855 L70.055 851.855 L70.055 857.711 L64.7079 857.711 Q67.8907 859.557 69.4503 862.39 Q70.9781 865.191 70.9781 869.138 Q70.9781 875.599 65.8219 879.673 Q60.6656 883.715 52.2629 883.715 Q43.8602 883.715 38.7039 879.673 Q33.5477 875.599 33.5477 869.138 Q33.5477 865.191 35.1073 862.39 Q36.6351 859.557 39.8179 857.711 M52.2629 877.668 Q58.7241 877.668 62.4162 875.026 Q66.0765 872.352 66.0765 867.705 Q66.0765 863.059 62.4162 860.385 Q58.7241 857.711 52.2629 857.711 Q45.8017 857.711 42.1414 860.385 Q38.4493 863.059 38.4493 867.705 Q38.4493 872.352 42.1414 875.026 Q45.8017 877.668 52.2629 877.668 Z" fill="#000000" fill-rule="evenodd" fill-opacity="1" /><path clip-path="url(#clip890)" d="M50.767 809.3 L53.6315 809.3 L53.6315 836.227 Q59.6789 835.845 62.8618 832.599 Q66.0128 829.32 66.0128 823.496 Q66.0128 820.122 65.1853 816.971 Q64.3577 813.788 62.7027 810.669 L68.2408 810.669 Q69.5776 813.82 70.2778 817.13 Q70.9781 820.44 70.9781 823.846 Q70.9781 832.376 66.0128 837.373 Q61.0476 842.338 52.5812 842.338 Q43.8283 842.338 38.7039 837.628 Q33.5477 832.885 33.5477 824.864 Q33.5477 817.671 38.1947 813.502 Q42.8098 809.3 50.767 809.3 M49.0482 815.157 Q44.2421 815.22 41.3775 817.862 Q38.513 820.472 38.513 824.801 Q38.513 829.702 41.2821 832.662 Q44.0511 835.591 49.08 836.036 L49.0482 815.157 Z" fill="#000000" fill-rule="evenodd" fill-opacity="1" /><path clip-path="url(#clip890)" d="M48.539 770.056 L70.055 770.056 L70.055 775.912 L48.7299 775.912 Q43.6692 775.912 41.1547 777.885 Q38.6403 779.859 38.6403 783.805 Q38.6403 788.548 41.664 791.285 Q44.6877 794.022 49.9076 794.022 L70.055 794.022 L70.055 799.911 L34.4071 799.911 L34.4071 794.022 L39.9453 794.022 Q36.7306 791.922 35.1391 789.089 Q33.5477 786.224 33.5477 782.501 Q33.5477 776.358 37.3671 773.207 Q41.1547 770.056 48.539 770.056 Z" fill="#000000" fill-rule="evenodd" fill-opacity="1" /><path clip-path="url(#clip890)" d="M35.4574 735.649 L40.9956 735.649 Q39.7225 738.132 39.0859 740.805 Q38.4493 743.479 38.4493 746.343 Q38.4493 750.704 39.7861 752.9 Q41.1229 755.064 43.7965 755.064 Q45.8335 755.064 47.0112 753.505 Q48.157 751.945 49.2074 747.234 L49.653 745.229 Q50.9898 738.991 53.4406 736.381 Q55.8595 733.739 60.22 733.739 Q65.1853 733.739 68.0817 737.686 Q70.9781 741.601 70.9781 748.476 Q70.9781 751.34 70.4052 754.46 Q69.8641 757.547 68.7501 760.984 L62.7027 760.984 Q64.3896 757.738 65.2489 754.587 Q66.0765 751.436 66.0765 748.348 Q66.0765 744.211 64.676 741.983 Q63.2437 739.755 60.6656 739.755 Q58.2785 739.755 57.0053 741.378 Q55.7322 742.969 54.5546 748.412 L54.0771 750.449 Q52.9313 755.892 50.576 758.311 Q48.1888 760.73 44.0511 760.73 Q39.0222 760.73 36.285 757.165 Q33.5477 753.6 33.5477 747.044 Q33.5477 743.797 34.0251 740.932 Q34.5026 738.068 35.4574 735.649 Z" fill="#000000" fill-rule="evenodd" fill-opacity="1" /><path clip-path="url(#clip890)" d="M34.4071 724.413 L34.4071 718.557 L70.055 718.557 L70.055 724.413 L34.4071 724.413 M20.5298 724.413 L20.5298 718.557 L27.9459 718.557 L27.9459 724.413 L20.5298 724.413 Z" fill="#000000" fill-rule="evenodd" fill-opacity="1" /><path clip-path="url(#clip890)" d="M24.2856 700.51 L34.4071 700.51 L34.4071 688.447 L38.9586 688.447 L38.9586 700.51 L58.3103 700.51 Q62.6708 700.51 63.9121 699.333 Q65.1535 698.123 65.1535 694.463 L65.1535 688.447 L70.055 688.447 L70.055 694.463 Q70.055 701.242 67.5406 703.82 Q64.9943 706.398 58.3103 706.398 L38.9586 706.398 L38.9586 710.695 L34.4071 710.695 L34.4071 706.398 L24.2856 706.398 L24.2856 700.51 Z" fill="#000000" fill-rule="evenodd" fill-opacity="1" /><path clip-path="url(#clip890)" d="M73.3652 665.913 Q79.7309 668.395 81.6725 670.751 Q83.614 673.106 83.614 677.053 L83.614 681.731 L78.7124 681.731 L78.7124 678.294 Q78.7124 675.875 77.5666 674.538 Q76.4208 673.201 72.1557 671.578 L69.4821 670.528 L34.4071 684.946 L34.4071 678.739 L62.2889 667.6 L34.4071 656.46 L34.4071 650.253 L73.3652 665.913 Z" fill="#000000" fill-rule="evenodd" fill-opacity="1" /><path clip-path="url(#clip890)" d="M1082.3 155.581 L1082.3 177.739 L1095.42 177.739 Q1102.03 177.739 1105.19 175.025 Q1108.39 172.271 1108.39 166.64 Q1108.39 160.969 1105.19 158.295 Q1102.03 155.581 1095.42 155.581 L1082.3 155.581 M1082.3 130.709 L1082.3 148.938 L1094.41 148.938 Q1100.41 148.938 1103.32 146.71 Q1106.28 144.441 1106.28 139.823 Q1106.28 135.246 1103.32 132.977 Q1100.41 130.709 1094.41 130.709 L1082.3 130.709 M1074.12 123.984 L1095.02 123.984 Q1104.38 123.984 1109.44 127.873 Q1114.5 131.762 1114.5 138.932 Q1114.5 144.482 1111.91 147.763 Q1109.32 151.044 1104.3 151.854 Q1110.33 153.151 1113.65 157.282 Q1117.02 161.374 1117.02 167.531 Q1117.02 175.633 1111.51 180.049 Q1106 184.464 1095.83 184.464 L1074.12 184.464 L1074.12 123.984 Z" fill="#000000" fill-rule="evenodd" fill-opacity="1" /><path clip-path="url(#clip890)" d="M1130.71 139.094 L1138.16 139.094 L1138.16 184.464 L1130.71 184.464 L1130.71 139.094 M1130.71 121.432 L1138.16 121.432 L1138.16 130.871 L1130.71 130.871 L1130.71 121.432 Z" fill="#000000" fill-rule="evenodd" fill-opacity="1" /><path clip-path="url(#clip890)" d="M1176.73 121.432 L1176.73 127.63 L1169.6 127.63 Q1165.59 127.63 1164.01 129.25 Q1162.47 130.871 1162.47 135.083 L1162.47 139.094 L1174.74 139.094 L1174.74 144.887 L1162.47 144.887 L1162.47 184.464 L1154.97 184.464 L1154.97 144.887 L1147.84 144.887 L1147.84 139.094 L1154.97 139.094 L1154.97 135.934 Q1154.97 128.359 1158.5 124.916 Q1162.02 121.432 1169.68 121.432 L1176.73 121.432 Z" fill="#000000" fill-rule="evenodd" fill-opacity="1" /><path clip-path="url(#clip890)" d="M1182.2 166.559 L1182.2 139.094 L1189.65 139.094 L1189.65 166.275 Q1189.65 172.716 1192.16 175.957 Q1194.67 179.157 1199.69 179.157 Q1205.73 179.157 1209.21 175.309 Q1212.74 171.461 1212.74 164.817 L1212.74 139.094 L1220.19 139.094 L1220.19 184.464 L1212.74 184.464 L1212.74 177.496 Q1210.02 181.628 1206.42 183.654 Q1202.85 185.639 1198.12 185.639 Q1190.3 185.639 1186.25 180.778 Q1182.2 175.917 1182.2 166.559 M1200.95 138 L1200.95 138 Z" fill="#000000" fill-rule="evenodd" fill-opacity="1" /><path clip-path="url(#clip890)" d="M1261.84 146.061 Q1260.58 145.332 1259.08 145.008 Q1257.62 144.644 1255.84 144.644 Q1249.52 144.644 1246.12 148.776 Q1242.76 152.867 1242.76 160.564 L1242.76 184.464 L1235.26 184.464 L1235.26 139.094 L1242.76 139.094 L1242.76 146.142 Q1245.11 142.011 1248.87 140.026 Q1252.64 138 1258.03 138 Q1258.8 138 1259.73 138.122 Q1260.66 138.203 1261.8 138.405 L1261.84 146.061 Z" fill="#000000" fill-rule="evenodd" fill-opacity="1" /><path clip-path="url(#clip890)" d="M1300.48 140.836 L1300.48 147.803 Q1297.32 146.061 1294.12 145.211 Q1290.96 144.32 1287.72 144.32 Q1280.47 144.32 1276.46 148.938 Q1272.45 153.515 1272.45 161.819 Q1272.45 170.124 1276.46 174.742 Q1280.47 179.319 1287.72 179.319 Q1290.96 179.319 1294.12 178.469 Q1297.32 177.577 1300.48 175.836 L1300.48 182.722 Q1297.36 184.18 1294 184.91 Q1290.68 185.639 1286.91 185.639 Q1276.66 185.639 1270.63 179.198 Q1264.59 172.757 1264.59 161.819 Q1264.59 150.72 1270.67 144.36 Q1276.78 138 1287.4 138 Q1290.84 138 1294.12 138.729 Q1297.4 139.418 1300.48 140.836 Z" fill="#000000" fill-rule="evenodd" fill-opacity="1" /><path clip-path="url(#clip890)" d="M1334.06 161.657 Q1325.03 161.657 1321.55 163.723 Q1318.06 165.789 1318.06 170.772 Q1318.06 174.742 1320.65 177.091 Q1323.29 179.4 1327.78 179.4 Q1333.98 179.4 1337.71 175.025 Q1341.48 170.61 1341.48 163.318 L1341.48 161.657 L1334.06 161.657 M1348.93 158.579 L1348.93 184.464 L1341.48 184.464 L1341.48 177.577 Q1338.92 181.709 1335.12 183.694 Q1331.31 185.639 1325.8 185.639 Q1318.83 185.639 1314.7 181.75 Q1310.61 177.821 1310.61 171.258 Q1310.61 163.602 1315.71 159.713 Q1320.86 155.824 1331.03 155.824 L1341.48 155.824 L1341.48 155.095 Q1341.48 149.95 1338.07 147.155 Q1334.71 144.32 1328.59 144.32 Q1324.71 144.32 1321.02 145.251 Q1317.33 146.183 1313.93 148.046 L1313.93 141.16 Q1318.02 139.58 1321.87 138.81 Q1325.72 138 1329.36 138 Q1339.21 138 1344.07 143.104 Q1348.93 148.208 1348.93 158.579 Z" fill="#000000" fill-rule="evenodd" fill-opacity="1" /><path clip-path="url(#clip890)" d="M1371.66 126.212 L1371.66 139.094 L1387.01 139.094 L1387.01 144.887 L1371.66 144.887 L1371.66 169.516 Q1371.66 175.066 1373.15 176.646 Q1374.69 178.226 1379.35 178.226 L1387.01 178.226 L1387.01 184.464 L1379.35 184.464 Q1370.72 184.464 1367.44 181.264 Q1364.16 178.023 1364.16 169.516 L1364.16 144.887 L1358.69 144.887 L1358.69 139.094 L1364.16 139.094 L1364.16 126.212 L1371.66 126.212 Z" fill="#000000" fill-rule="evenodd" fill-opacity="1" /><path clip-path="url(#clip890)" d="M1396.81 139.094 L1404.27 139.094 L1404.27 184.464 L1396.81 184.464 L1396.81 139.094 M1396.81 121.432 L1404.27 121.432 L1404.27 130.871 L1396.81 130.871 L1396.81 121.432 Z" fill="#000000" fill-rule="evenodd" fill-opacity="1" /><path clip-path="url(#clip890)" d="M1437.44 144.32 Q1431.45 144.32 1427.96 149.019 Q1424.48 153.677 1424.48 161.819 Q1424.48 169.962 1427.92 174.661 Q1431.41 179.319 1437.44 179.319 Q1443.4 179.319 1446.88 174.62 Q1450.36 169.921 1450.36 161.819 Q1450.36 153.758 1446.88 149.059 Q1443.4 144.32 1437.44 144.32 M1437.44 138 Q1447.16 138 1452.71 144.32 Q1458.26 150.639 1458.26 161.819 Q1458.26 172.959 1452.71 179.319 Q1447.16 185.639 1437.44 185.639 Q1427.68 185.639 1422.13 179.319 Q1416.62 172.959 1416.62 161.819 Q1416.62 150.639 1422.13 144.32 Q1427.68 138 1437.44 138 Z" fill="#000000" fill-rule="evenodd" fill-opacity="1" /><path clip-path="url(#clip890)" d="M1508.33 157.08 L1508.33 184.464 L1500.88 184.464 L1500.88 157.323 Q1500.88 150.882 1498.37 147.682 Q1495.86 144.482 1490.83 144.482 Q1484.8 144.482 1481.31 148.33 Q1477.83 152.178 1477.83 158.822 L1477.83 184.464 L1470.34 184.464 L1470.34 139.094 L1477.83 139.094 L1477.83 146.142 Q1480.5 142.051 1484.11 140.026 Q1487.75 138 1492.49 138 Q1500.31 138 1504.32 142.861 Q1508.33 147.682 1508.33 157.08 Z" fill="#000000" fill-rule="evenodd" fill-opacity="1" /><path clip-path="url(#clip890)" d="M1558.08 130.709 L1558.08 177.739 L1567.96 177.739 Q1580.48 177.739 1586.27 172.068 Q1592.11 166.397 1592.11 154.163 Q1592.11 142.011 1586.27 136.38 Q1580.48 130.709 1567.96 130.709 L1558.08 130.709 M1549.9 123.984 L1566.71 123.984 Q1584.29 123.984 1592.51 131.316 Q1600.73 138.608 1600.73 154.163 Q1600.73 169.8 1592.47 177.132 Q1584.21 184.464 1566.71 184.464 L1549.9 184.464 L1549.9 123.984 Z" fill="#000000" fill-rule="evenodd" fill-opacity="1" /><path clip-path="url(#clip890)" d="M1613.45 139.094 L1620.91 139.094 L1620.91 184.464 L1613.45 184.464 L1613.45 139.094 M1613.45 121.432 L1620.91 121.432 L1620.91 130.871 L1613.45 130.871 L1613.45 121.432 Z" fill="#000000" fill-rule="evenodd" fill-opacity="1" /><path clip-path="url(#clip890)" d="M1657.12 161.657 Q1648.09 161.657 1644.61 163.723 Q1641.12 165.789 1641.12 170.772 Q1641.12 174.742 1643.71 177.091 Q1646.35 179.4 1650.84 179.4 Q1657.04 179.4 1660.77 175.025 Q1664.54 170.61 1664.54 163.318 L1664.54 161.657 L1657.12 161.657 M1671.99 158.579 L1671.99 184.464 L1664.54 184.464 L1664.54 177.577 Q1661.98 181.709 1658.18 183.694 Q1654.37 185.639 1648.86 185.639 Q1641.89 185.639 1637.76 181.75 Q1633.67 177.821 1633.67 171.258 Q1633.67 163.602 1638.77 159.713 Q1643.92 155.824 1654.08 155.824 L1664.54 155.824 L1664.54 155.095 Q1664.54 149.95 1661.13 147.155 Q1657.77 144.32 1651.65 144.32 Q1647.77 144.32 1644.08 145.251 Q1640.39 146.183 1636.99 148.046 L1636.99 141.16 Q1641.08 139.58 1644.93 138.81 Q1648.78 138 1652.42 138 Q1662.27 138 1667.13 143.104 Q1671.99 148.208 1671.99 158.579 Z" fill="#000000" fill-rule="evenodd" fill-opacity="1" /><path clip-path="url(#clip890)" d="M1717.2 161.252 Q1717.2 153.151 1713.84 148.695 Q1710.51 144.239 1704.48 144.239 Q1698.48 144.239 1695.12 148.695 Q1691.8 153.151 1691.8 161.252 Q1691.8 169.314 1695.12 173.77 Q1698.48 178.226 1704.48 178.226 Q1710.51 178.226 1713.84 173.77 Q1717.2 169.314 1717.2 161.252 M1724.65 178.833 Q1724.65 190.419 1719.51 196.05 Q1714.36 201.721 1703.75 201.721 Q1699.82 201.721 1696.34 201.113 Q1692.85 200.546 1689.57 199.331 L1689.57 192.08 Q1692.85 193.862 1696.05 194.713 Q1699.25 195.563 1702.57 195.563 Q1709.91 195.563 1713.55 191.715 Q1717.2 187.907 1717.2 180.17 L1717.2 176.484 Q1714.89 180.494 1711.28 182.479 Q1707.68 184.464 1702.66 184.464 Q1694.31 184.464 1689.21 178.104 Q1684.1 171.744 1684.1 161.252 Q1684.1 150.72 1689.21 144.36 Q1694.31 138 1702.66 138 Q1707.68 138 1711.28 139.985 Q1714.89 141.97 1717.2 145.98 L1717.2 139.094 L1724.65 139.094 L1724.65 178.833 Z" fill="#000000" fill-rule="evenodd" fill-opacity="1" /><path clip-path="url(#clip890)" d="M1766.29 146.061 Q1765.04 145.332 1763.54 145.008 Q1762.08 144.644 1760.3 144.644 Q1753.98 144.644 1750.58 148.776 Q1747.22 152.867 1747.22 160.564 L1747.22 184.464 L1739.72 184.464 L1739.72 139.094 L1747.22 139.094 L1747.22 146.142 Q1749.56 142.011 1753.33 140.026 Q1757.1 138 1762.49 138 Q1763.26 138 1764.19 138.122 Q1765.12 138.203 1766.25 138.405 L1766.29 146.061 Z" fill="#000000" fill-rule="evenodd" fill-opacity="1" /><path clip-path="url(#clip890)" d="M1794.73 161.657 Q1785.7 161.657 1782.21 163.723 Q1778.73 165.789 1778.73 170.772 Q1778.73 174.742 1781.32 177.091 Q1783.96 179.4 1788.45 179.4 Q1794.65 179.4 1798.38 175.025 Q1802.15 170.61 1802.15 163.318 L1802.15 161.657 L1794.73 161.657 M1809.6 158.579 L1809.6 184.464 L1802.15 184.464 L1802.15 177.577 Q1799.59 181.709 1795.79 183.694 Q1791.98 185.639 1786.47 185.639 Q1779.5 185.639 1775.37 181.75 Q1771.28 177.821 1771.28 171.258 Q1771.28 163.602 1776.38 159.713 Q1781.53 155.824 1791.69 155.824 L1802.15 155.824 L1802.15 155.095 Q1802.15 149.95 1798.74 147.155 Q1795.38 144.32 1789.26 144.32 Q1785.37 144.32 1781.69 145.251 Q1778 146.183 1774.6 148.046 L1774.6 141.16 Q1778.69 139.58 1782.54 138.81 Q1786.39 138 1790.03 138 Q1799.88 138 1804.74 143.104 Q1809.6 148.208 1809.6 158.579 Z" fill="#000000" fill-rule="evenodd" fill-opacity="1" /><path clip-path="url(#clip890)" d="M1860.28 147.803 Q1863.07 142.78 1866.96 140.39 Q1870.85 138 1876.11 138 Q1883.2 138 1887.05 142.983 Q1890.9 147.925 1890.9 157.08 L1890.9 184.464 L1883.41 184.464 L1883.41 157.323 Q1883.41 150.801 1881.1 147.641 Q1878.79 144.482 1874.05 144.482 Q1868.26 144.482 1864.89 148.33 Q1861.53 152.178 1861.53 158.822 L1861.53 184.464 L1854.04 184.464 L1854.04 157.323 Q1854.04 150.76 1851.73 147.641 Q1849.42 144.482 1844.6 144.482 Q1838.89 144.482 1835.52 148.37 Q1832.16 152.219 1832.16 158.822 L1832.16 184.464 L1824.67 184.464 L1824.67 139.094 L1832.16 139.094 L1832.16 146.142 Q1834.71 141.97 1838.28 139.985 Q1841.84 138 1846.75 138 Q1851.69 138 1855.13 140.512 Q1858.62 143.023 1860.28 147.803 Z" fill="#000000" fill-rule="evenodd" fill-opacity="1" /><polyline clip-path="url(#clip893)" style="stroke:#2ba02b; stroke-linecap:round; stroke-linejoin:round; stroke-width:8; stroke-opacity:1; fill:none" points="
  265.482,1570.16 295.477,1570.16 325.471,1570.16 355.465,1570.16 385.459,1570.16 415.453,1570.16 445.448,1570.16 475.442,1570.16 505.436,1570.16 535.43,1570.16 
  565.425,1570.16 595.419,1570.16 625.413,1570.16 655.407,1570.16 685.402,1570.16 715.396,1570.16 745.39,1570.16 775.384,1570.16 805.379,1570.16 835.373,1570.16 
  865.367,1570.16 
  "/>
<polyline clip-path="url(#clip893)" style="stroke:#ff7e0d; stroke-linecap:round; stroke-linejoin:round; stroke-width:8; stroke-opacity:1; fill:none" points="
  865.367,1570.16 895.361,1570.16 925.356,1570.16 955.35,1570.16 985.344,1570.16 1015.34,1570.16 1045.33,1570.16 1075.33,1570.16 1105.32,1570.16 1135.32,1570.16 
  1165.31,1570.16 1195.3,1570.16 1225.3,1570.16 1255.29,1570.16 1285.29,1570.16 1315.28,1570.16 1345.28,1570.16 1375.27,1570.16 1405.26,1570.16 1435.26,1570.16 
  1465.25,1570.16 1495.25,1570.16 1525.24,1570.16 1555.23,1570.16 1585.23,1570.16 1615.22,1570.16 1645.22,1570.16 1675.21,1570.16 1705.21,1570.16 1735.2,1570.16 
  1765.19,1570.16 1795.19,1570.16 1825.18,1570.16 1855.18,1570.16 1885.17,1570.16 1915.17,1570.16 1945.16,1570.16 1975.15,1570.16 2005.15,1570.16 2035.14,1570.16 
  2065.14,1570.16 
  "/>
<polyline clip-path="url(#clip893)" style="stroke:#2ba02b; stroke-linecap:round; stroke-linejoin:round; stroke-width:8; stroke-opacity:1; fill:none" points="
  865.367,1570.16 895.361,1535.34 925.356,1503.68 955.35,1474.78 985.344,1448.29 1015.34,1423.92 1045.33,1401.42 1075.33,1380.59 1105.32,1361.25 1135.32,1343.24 
  1165.31,1326.43 1195.3,1310.7 1225.3,1295.96 1255.29,1282.11 1285.29,1269.08 1315.28,1256.79 1345.28,1245.18 1375.27,1234.2 1405.26,1223.8 1435.26,1213.94 
  1465.25,1204.56 1495.25,1195.65 1525.24,1187.15 1555.23,1179.06 1585.23,1171.33 1615.22,1163.94 1645.22,1156.88 1675.21,1150.11 1705.21,1143.63 1735.2,1137.41 
  1765.19,1131.44 1795.19,1125.71 1825.18,1120.19 1855.18,1114.89 1885.17,1109.78 1915.17,1104.85 1945.16,1100.11 1975.15,1095.53 2005.15,1091.1 2035.14,1086.83 
  2065.14,1082.7 
  "/>
<polyline clip-path="url(#clip893)" style="stroke:#ff7e0d; stroke-linecap:round; stroke-linejoin:round; stroke-width:8; stroke-opacity:1; fill:none" points="
  2059.14,1570.16 2062.14,1570.16 2065.14,1570.16 2068.14,1570.16 2071.14,1570.16 2074.14,1570.16 2077.13,1570.16 2080.13,1570.16 2083.13,1570.16 2086.13,1570.16 
  2089.13,1570.16 2092.13,1570.16 2095.13,1570.16 2098.13,1570.16 2101.13,1570.16 2104.13,1570.16 2107.13,1570.16 2110.13,1570.16 2113.13,1570.16 2116.13,1570.16 
  2119.13,1570.16 2122.13,1570.16 2125.13,1570.16 2128.12,1570.16 2131.12,1570.16 2134.12,1570.16 2137.12,1570.16 2140.12,1570.16 2143.12,1570.16 2146.12,1570.16 
  2149.12,1570.16 2152.12,1570.16 2155.12,1570.16 2158.12,1570.16 2161.12,1570.16 2164.12,1570.16 2167.12,1570.16 2170.12,1570.16 2173.12,1570.16 2176.12,1570.16 
  2179.11,1570.16 2182.11,1570.16 2185.11,1570.16 2188.11,1570.16 2191.11,1570.16 2194.11,1570.16 2197.11,1570.16 2200.11,1570.16 2203.11,1570.16 2206.11,1570.16 
  2209.11,1570.16 2212.11,1570.16 2215.11,1570.16 2218.11,1570.16 2221.11,1570.16 2224.11,1570.16 2227.11,1570.16 2230.11,1570.16 2233.1,1570.16 2236.1,1570.16 
  2239.1,1570.16 2242.1,1570.16 2245.1,1570.16 2248.1,1570.16 2251.1,1570.16 2254.1,1570.16 2257.1,1570.16 2260.1,1570.16 2263.1,1570.16 2266.1,1570.16 
  2269.1,1570.16 2272.1,1570.16 2275.1,1570.16 2278.1,1570.16 2281.1,1570.16 2284.09,1570.16 2287.09,1570.16 2290.09,1570.16 2293.09,1570.16 2296.09,1570.16 
  2299.09,1570.16 2302.09,1570.16 2305.09,1570.16 2308.09,1570.16 2311.09,1570.16 2314.09,1570.16 2317.09,1570.16 2320.09,1570.16 2323.09,1570.16 2326.09,1570.16 
  2329.09,1570.16 2332.09,1570.16 2335.09,1570.16 2338.08,1570.16 2341.08,1570.16 2344.08,1570.16 2347.08,1570.16 2350.08,1570.16 2353.08,1570.16 2356.08,1570.16 
  2359.08,1570.16 2362.08,1570.16 2365.08,1570.16 2368.08,1570.16 2371.08,1570.16 2374.08,1570.16 2377.08,1570.16 2380.08,1570.16 2383.08,1570.16 2386.08,1570.16 
  2389.07,1570.16 2392.07,1570.16 2395.07,1570.16 2398.07,1570.16 2401.07,1570.16 2404.07,1570.16 2407.07,1570.16 2410.07,1570.16 2413.07,1570.16 2416.07,1570.16 
  2419.07,1570.16 2422.07,1570.16 2425.07,1570.16 2428.07,1570.16 2431.07,1570.16 2434.07,1570.16 2437.07,1570.16 2440.06,1570.16 2443.06,1570.16 2446.06,1570.16 
  2449.06,1570.16 2452.06,1570.16 2455.06,1570.16 2458.06,1570.16 2461.06,1570.16 2464.06,1570.16 2467.06,1570.16 2470.06,1570.16 2473.06,1570.16 2476.06,1570.16 
  2479.06,1570.16 2482.06,1570.16 2485.06,1570.16 2488.06,1570.16 2491.06,1570.16 2494.05,1570.16 2497.05,1570.16 2500.05,1570.16 2503.05,1570.16 2506.05,1570.16 
  2509.05,1570.16 2512.05,1570.16 2515.05,1570.16 2518.05,1570.16 2521.05,1570.16 2524.05,1570.16 2527.05,1570.16 2530.05,1570.16 2533.05,1570.16 2536.05,1570.16 
  2539.05,1570.16 2542.05,1570.16 2545.04,1570.16 2548.04,1570.16 2551.04,1570.16 2554.04,1570.16 2557.04,1570.16 2560.04,1570.16 2563.04,1570.16 2566.04,1570.16 
  2569.04,1570.16 2572.04,1570.16 2575.04,1570.16 2578.04,1570.16 2581.04,1570.16 2584.04,1570.16 2587.04,1570.16 2590.04,1570.16 2593.04,1570.16 2596.03,1570.16 
  2599.03,1570.16 2602.03,1570.16 2605.03,1570.16 2608.03,1570.16 2611.03,1570.16 2614.03,1570.16 2617.03,1570.16 2620.03,1570.16 2623.03,1570.16 2626.03,1570.16 
  2629.03,1570.16 2632.03,1570.16 2635.03,1570.16 2638.03,1570.16 2641.03,1570.16 2644.03,1570.16 2647.03,1570.16 2650.02,1570.16 2653.02,1570.16 2656.02,1570.16 
  2659.02,1570.16 2662.02,1570.16 2665.02,1570.16 
  "/>
<polyline clip-path="url(#clip893)" style="stroke:#ff7e0d; stroke-linecap:round; stroke-linejoin:round; stroke-width:8; stroke-opacity:1; fill:none" points="
  2059.14,1083.51 2062.14,1083.1 2065.14,1082.7 2068.14,1082.29 2071.14,1081.89 2074.14,1081.48 2077.13,1081.08 2080.13,1080.68 2083.13,1080.28 2086.13,1079.89 
  2089.13,1079.49 2092.13,1079.1 2095.13,1078.7 2098.13,1078.31 2101.13,1077.92 2104.13,1077.53 2107.13,1077.14 2110.13,1076.75 2113.13,1076.37 2116.13,1075.98 
  2119.13,1075.6 2122.13,1075.22 2125.13,1074.84 2128.12,1074.46 2131.12,1074.08 2134.12,1073.7 2137.12,1073.32 2140.12,1072.95 2143.12,1072.57 2146.12,1072.2 
  2149.12,1071.83 2152.12,1071.46 2155.12,1071.09 2158.12,1070.72 2161.12,1070.36 2164.12,1069.99 2167.12,1069.63 2170.12,1069.26 2173.12,1068.9 2176.12,1068.54 
  2179.11,1068.18 2182.11,1067.82 2185.11,1067.46 2188.11,1067.11 2191.11,1066.75 2194.11,1066.4 2197.11,1066.05 2200.11,1065.69 2203.11,1065.34 2206.11,1064.99 
  2209.11,1064.64 2212.11,1064.3 2215.11,1063.95 2218.11,1063.6 2221.11,1063.26 2224.11,1062.92 2227.11,1062.57 2230.11,1062.23 2233.1,1061.89 2236.1,1061.55 
  2239.1,1061.21 2242.1,1060.88 2245.1,1060.54 2248.1,1060.21 2251.1,1059.87 2254.1,1059.54 2257.1,1059.21 2260.1,1058.87 2263.1,1058.54 2266.1,1058.22 
  2269.1,1057.89 2272.1,1057.56 2275.1,1057.23 2278.1,1056.91 2281.1,1056.58 2284.09,1056.26 2287.09,1055.94 2290.09,1055.62 2293.09,1055.3 2296.09,1054.98 
  2299.09,1054.66 2302.09,1054.34 2305.09,1054.02 2308.09,1053.71 2311.09,1053.39 2314.09,1053.08 2317.09,1052.77 2320.09,1052.45 2323.09,1052.14 2326.09,1051.83 
  2329.09,1051.52 2332.09,1051.21 2335.09,1050.91 2338.08,1050.6 2341.08,1050.29 2344.08,1049.99 2347.08,1049.69 2350.08,1049.38 2353.08,1049.08 2356.08,1048.78 
  2359.08,1048.48 2362.08,1048.18 2365.08,1047.88 2368.08,1047.58 2371.08,1047.28 2374.08,1046.99 2377.08,1046.69 2380.08,1046.4 2383.08,1046.1 2386.08,1045.81 
  2389.07,1045.52 2392.07,1045.23 2395.07,1044.94 2398.07,1044.65 2401.07,1044.36 2404.07,1044.07 2407.07,1043.78 2410.07,1043.5 2413.07,1043.21 2416.07,1042.93 
  2419.07,1042.64 2422.07,1042.36 2425.07,1042.08 2428.07,1041.79 2431.07,1041.51 2434.07,1041.23 2437.07,1040.95 2440.06,1040.68 2443.06,1040.4 2446.06,1040.12 
  2449.06,1039.84 2452.06,1039.57 2455.06,1039.29 2458.06,1039.02 2461.06,1038.75 2464.06,1038.47 2467.06,1038.2 2470.06,1037.93 2473.06,1037.66 2476.06,1037.39 
  2479.06,1037.12 2482.06,1036.85 2485.06,1036.59 2488.06,1036.32 2491.06,1036.05 2494.05,1035.79 2497.05,1035.52 2500.05,1035.26 2503.05,1035 2506.05,1034.73 
  2509.05,1034.47 2512.05,1034.21 2515.05,1033.95 2518.05,1033.69 2521.05,1033.43 2524.05,1033.17 2527.05,1032.92 2530.05,1032.66 2533.05,1032.4 2536.05,1032.15 
  2539.05,1031.89 2542.05,1031.64 2545.04,1031.39 2548.04,1031.13 2551.04,1030.88 2554.04,1030.63 2557.04,1030.38 2560.04,1030.13 2563.04,1029.88 2566.04,1029.63 
  2569.04,1029.38 2572.04,1029.13 2575.04,1028.89 2578.04,1028.64 2581.04,1028.4 2584.04,1028.15 2587.04,1027.91 2590.04,1027.66 2593.04,1027.42 2596.03,1027.18 
  2599.03,1026.93 2602.03,1026.69 2605.03,1026.45 2608.03,1026.21 2611.03,1025.97 2614.03,1025.73 2617.03,1025.5 2620.03,1025.26 2623.03,1025.02 2626.03,1024.78 
  2629.03,1024.55 2632.03,1024.31 2635.03,1024.08 2638.03,1023.85 2641.03,1023.61 2644.03,1023.38 2647.03,1023.15 2650.02,1022.91 2653.02,1022.68 2656.02,1022.45 
  2659.02,1022.22 2662.02,1021.99 2665.02,1021.77 
  "/>
<polyline clip-path="url(#clip893)" style="stroke:#1f77b4; stroke-linecap:round; stroke-linejoin:round; stroke-width:8; stroke-opacity:1; fill:none" points="
  2059.14,1083.59 2062.14,1084.58 2065.14,1098.96 2068.14,1124.12 2071.14,1140.75 2074.14,1153.34 2077.13,1163.82 2080.13,1172.95 2083.13,1181.11 2086.13,1188.55 
  2089.13,1195.42 2092.13,1201.81 2095.13,1207.81 2098.13,1213.47 2101.13,1218.83 2104.13,1223.94 2107.13,1228.83 2110.13,1233.51 2113.13,1238 2116.13,1242.33 
  2119.13,1246.5 2122.13,1250.53 2125.13,1254.44 2128.12,1258.22 2131.12,1261.89 2134.12,1265.46 2137.12,1268.93 2140.12,1272.3 2143.12,1275.6 2146.12,1278.81 
  2149.12,1281.94 2152.12,1285 2155.12,1287.99 2158.12,1290.91 2161.12,1293.78 2164.12,1296.58 2167.12,1299.32 2170.12,1302.01 2173.12,1304.65 2176.12,1307.24 
  2179.11,1309.78 2182.11,1312.27 2185.11,1314.72 2188.11,1317.12 2191.11,1319.48 2194.11,1321.8 2197.11,1324.09 2200.11,1326.33 2203.11,1328.54 2206.11,1330.72 
  2209.11,1332.86 2212.11,1334.97 2215.11,1337.04 2218.11,1339.09 2221.11,1341.1 2224.11,1343.09 2227.11,1345.04 2230.11,1346.97 2233.1,1348.87 2236.1,1350.75 
  2239.1,1352.6 2242.1,1354.42 2245.1,1356.22 2248.1,1358 2251.1,1359.75 2254.1,1361.48 2257.1,1363.19 2260.1,1364.88 2263.1,1366.55 2266.1,1368.19 
  2269.1,1369.82 2272.1,1371.42 2275.1,1373.01 2278.1,1374.57 2281.1,1376.12 2284.09,1377.65 2287.09,1379.17 2290.09,1380.66 2293.09,1382.14 2296.09,1383.6 
  2299.09,1385.05 2302.09,1386.48 2305.09,1387.89 2308.09,1389.29 2311.09,1390.67 2314.09,1392.04 2317.09,1393.39 2320.09,1394.73 2323.09,1396.05 2326.09,1397.36 
  2329.09,1398.66 2332.09,1399.94 2335.09,1401.21 2338.08,1402.47 2341.08,1403.71 2344.08,1404.94 2347.08,1406.16 2350.08,1407.37 2353.08,1408.56 2356.08,1409.75 
  2359.08,1410.92 2362.08,1412.08 2365.08,1413.23 2368.08,1414.36 2371.08,1415.49 2374.08,1416.61 2377.08,1417.71 2380.08,1418.81 2383.08,1419.89 2386.08,1420.97 
  2389.07,1422.03 2392.07,1423.08 2395.07,1424.13 2398.07,1425.16 2401.07,1426.19 2404.07,1427.21 2407.07,1428.21 2410.07,1429.21 2413.07,1430.2 2416.07,1431.18 
  2419.07,1432.15 2422.07,1433.12 2425.07,1434.07 2428.07,1435.02 2431.07,1435.95 2434.07,1436.88 2437.07,1437.8 2440.06,1438.72 2443.06,1439.62 2446.06,1440.52 
  2449.06,1441.41 2452.06,1442.29 2455.06,1443.17 2458.06,1444.04 2461.06,1444.9 2464.06,1445.75 2467.06,1446.6 2470.06,1447.44 2473.06,1448.27 2476.06,1449.09 
  2479.06,1449.91 2482.06,1450.72 2485.06,1451.53 2488.06,1452.33 2491.06,1453.12 2494.05,1453.9 2497.05,1454.68 2500.05,1455.45 2503.05,1456.22 2506.05,1456.98 
  2509.05,1457.73 2512.05,1458.48 2515.05,1459.22 2518.05,1459.96 2521.05,1460.69 2524.05,1461.42 2527.05,1462.14 2530.05,1462.85 2533.05,1463.56 2536.05,1464.26 
  2539.05,1464.96 2542.05,1465.65 2545.04,1466.33 2548.04,1467.01 2551.04,1467.69 2554.04,1468.36 2557.04,1469.02 2560.04,1469.68 2563.04,1470.34 2566.04,1470.99 
  2569.04,1471.63 2572.04,1472.27 2575.04,1472.91 2578.04,1473.54 2581.04,1474.17 2584.04,1474.79 2587.04,1475.4 2590.04,1476.02 2593.04,1476.62 2596.03,1477.23 
  2599.03,1477.82 2602.03,1478.42 2605.03,1479.01 2608.03,1479.59 2611.03,1480.17 2614.03,1480.75 2617.03,1481.32 2620.03,1481.89 2623.03,1482.45 2626.03,1483.01 
  2629.03,1483.57 2632.03,1484.12 2635.03,1484.67 2638.03,1485.21 2641.03,1485.75 2644.03,1486.29 2647.03,1486.82 2650.02,1487.35 2653.02,1487.87 2656.02,1488.39 
  2659.02,1488.91 2662.02,1489.42 2665.02,1489.93 
  "/>
<polyline clip-path="url(#clip893)" style="stroke:#1f77b4; stroke-linecap:round; stroke-linejoin:round; stroke-width:8; stroke-opacity:1; fill:none" points="
  2059.14,1083.44 2062.14,1081.63 2065.14,1066.32 2068.14,1039.65 2071.14,1021.38 2074.14,1007.16 2077.13,995.049 2080.13,984.281 2083.13,974.469 2086.13,965.381 
  2089.13,956.866 2092.13,948.82 2095.13,941.165 2098.13,933.844 2101.13,926.813 2104.13,920.035 2107.13,913.482 2110.13,907.129 2113.13,900.958 2116.13,894.95 
  2119.13,889.093 2122.13,883.372 2125.13,877.778 2128.12,872.301 2131.12,866.932 2134.12,861.664 2137.12,856.491 2140.12,851.406 2143.12,846.405 2146.12,841.482 
  2149.12,836.632 2152.12,831.852 2155.12,827.139 2158.12,822.489 2161.12,817.898 2164.12,813.364 2167.12,808.884 2170.12,804.456 2173.12,800.078 2176.12,795.747 
  2179.11,791.461 2182.11,787.219 2185.11,783.019 2188.11,778.86 2191.11,774.737 2194.11,770.653 2197.11,766.605 2200.11,762.591 2203.11,758.611 2206.11,754.662 
  2209.11,750.745 2212.11,746.858 2215.11,743.001 2218.11,739.171 2221.11,735.369 2224.11,731.594 2227.11,727.844 2230.11,724.118 2233.1,720.417 2236.1,716.74 
  2239.1,713.086 2242.1,709.454 2245.1,705.843 2248.1,702.253 2251.1,698.684 2254.1,695.135 2257.1,691.605 2260.1,688.095 2263.1,684.604 2266.1,681.128 
  2269.1,677.671 2272.1,674.231 2275.1,670.808 2278.1,667.402 2281.1,664.011 2284.09,660.636 2287.09,657.276 2290.09,653.931 2293.09,650.6 2296.09,647.284 
  2299.09,643.982 2302.09,640.692 2305.09,637.417 2308.09,634.154 2311.09,630.904 2314.09,627.667 2317.09,624.442 2320.09,621.228 2323.09,618.027 2326.09,614.837 
  2329.09,611.658 2332.09,608.491 2335.09,605.334 2338.08,602.188 2341.08,599.052 2344.08,595.926 2347.08,592.811 2350.08,589.705 2353.08,586.609 2356.08,583.523 
  2359.08,580.446 2362.08,577.38 2365.08,574.318 2368.08,571.268 2371.08,568.227 2374.08,565.193 2377.08,562.169 2380.08,559.152 2383.08,556.144 2386.08,553.143 
  2389.07,550.151 2392.07,547.165 2395.07,544.188 2398.07,541.218 2401.07,538.255 2404.07,535.299 2407.07,532.351 2410.07,529.409 2413.07,526.474 2416.07,523.546 
  2419.07,520.625 2422.07,517.71 2425.07,514.801 2428.07,511.899 2431.07,509.003 2434.07,506.113 2437.07,503.229 2440.06,500.351 2443.06,497.479 2446.06,494.612 
  2449.06,491.752 2452.06,488.896 2455.06,486.047 2458.06,483.203 2461.06,480.364 2464.06,477.53 2467.06,474.701 2470.06,471.878 2473.06,469.06 2476.06,466.246 
  2479.06,463.438 2482.06,460.634 2485.06,457.835 2488.06,455.04 2491.06,452.251 2494.05,449.466 2497.05,446.685 2500.05,443.909 2503.05,441.137 2506.05,438.369 
  2509.05,435.606 2512.05,432.846 2515.05,430.092 2518.05,427.34 2521.05,424.593 2524.05,421.851 2527.05,419.115 2530.05,416.376 2533.05,413.645 2536.05,410.917 
  2539.05,408.193 2542.05,405.473 2545.04,402.756 2548.04,400.043 2551.04,397.334 2554.04,394.628 2557.04,391.924 2560.04,389.225 2563.04,386.529 2566.04,383.836 
  2569.04,381.147 2572.04,378.461 2575.04,375.777 2578.04,373.099 2581.04,370.421 2584.04,367.747 2587.04,365.076 2590.04,362.408 2593.04,359.743 2596.03,357.081 
  2599.03,354.425 2602.03,351.766 2605.03,349.112 2608.03,346.462 2611.03,343.813 2614.03,341.168 2617.03,338.525 2620.03,335.885 2623.03,333.248 2626.03,330.613 
  2629.03,327.981 2632.03,325.351 2635.03,322.724 2638.03,320.099 2641.03,317.476 2644.03,314.856 2647.03,312.238 2650.02,309.623 2653.02,307.01 2656.02,304.399 
  2659.02,301.79 2662.02,299.184 2665.02,296.58 
  "/>
<path clip-path="url(#clip890)" d="
M278.28 510.732 L1034.04 510.732 L1034.04 303.372 L278.28 303.372  Z
  " fill="#ffffff" fill-rule="evenodd" fill-opacity="1"/>
<polyline clip-path="url(#clip890)" style="stroke:#000000; stroke-linecap:round; stroke-linejoin:round; stroke-width:4; stroke-opacity:1; fill:none" points="
  278.28,510.732 1034.04,510.732 1034.04,303.372 278.28,303.372 278.28,510.732 
  "/>
<polyline clip-path="url(#clip890)" style="stroke:#2ba02b; stroke-linecap:round; stroke-linejoin:round; stroke-width:8; stroke-opacity:1; fill:none" points="
  306.541,355.212 476.109,355.212 
  "/>
<path clip-path="url(#clip890)" d="M517.772 359.46 Q512.61 359.46 510.62 360.64 Q508.629 361.821 508.629 364.668 Q508.629 366.936 510.11 368.279 Q511.615 369.598 514.185 369.598 Q517.726 369.598 519.856 367.098 Q522.009 364.575 522.009 360.409 L522.009 359.46 L517.772 359.46 M526.268 357.7 L526.268 372.492 L522.009 372.492 L522.009 368.557 Q520.55 370.918 518.374 372.052 Q516.198 373.163 513.05 373.163 Q509.069 373.163 506.708 370.941 Q504.37 368.696 504.37 364.946 Q504.37 360.571 507.286 358.349 Q510.226 356.126 516.036 356.126 L522.009 356.126 L522.009 355.71 Q522.009 352.77 520.064 351.173 Q518.143 349.552 514.647 349.552 Q512.425 349.552 510.319 350.085 Q508.212 350.617 506.268 351.682 L506.268 347.747 Q508.606 346.844 510.805 346.404 Q513.004 345.941 515.087 345.941 Q520.712 345.941 523.49 348.858 Q526.268 351.775 526.268 357.7 Z" fill="#000000" fill-rule="evenodd" fill-opacity="1" /><path clip-path="url(#clip890)" d="M551.569 347.33 L551.569 351.358 Q549.763 350.432 547.819 349.969 Q545.874 349.506 543.791 349.506 Q540.62 349.506 539.022 350.478 Q537.448 351.45 537.448 353.395 Q537.448 354.876 538.583 355.733 Q539.717 356.566 543.143 357.33 L544.601 357.654 Q549.138 358.626 551.036 360.409 Q552.957 362.168 552.957 365.339 Q552.957 368.95 550.087 371.057 Q547.24 373.163 542.24 373.163 Q540.157 373.163 537.888 372.747 Q535.643 372.353 533.143 371.543 L533.143 367.145 Q535.504 368.372 537.796 368.997 Q540.087 369.598 542.333 369.598 Q545.342 369.598 546.962 368.58 Q548.582 367.538 548.582 365.663 Q548.582 363.927 547.402 363.001 Q546.245 362.075 542.286 361.219 L540.805 360.872 Q536.846 360.038 535.087 358.325 Q533.328 356.589 533.328 353.58 Q533.328 349.923 535.921 347.932 Q538.513 345.941 543.282 345.941 Q545.643 345.941 547.726 346.288 Q549.809 346.636 551.569 347.33 Z" fill="#000000" fill-rule="evenodd" fill-opacity="1" /><path clip-path="url(#clip890)" d="M570.527 374.899 Q568.721 379.529 567.008 380.941 Q565.295 382.353 562.425 382.353 L559.022 382.353 L559.022 378.788 L561.522 378.788 Q563.281 378.788 564.254 377.955 Q565.226 377.122 566.406 374.02 L567.17 372.075 L556.684 346.566 L561.198 346.566 L569.3 366.844 L577.402 346.566 L581.916 346.566 L570.527 374.899 Z" fill="#000000" fill-rule="evenodd" fill-opacity="1" /><path clip-path="url(#clip890)" d="M607.98 351.543 Q609.578 348.673 611.8 347.307 Q614.022 345.941 617.031 345.941 Q621.082 345.941 623.281 348.788 Q625.48 351.612 625.48 356.844 L625.48 372.492 L621.198 372.492 L621.198 356.983 Q621.198 353.256 619.878 351.45 Q618.559 349.645 615.851 349.645 Q612.54 349.645 610.619 351.844 Q608.698 354.043 608.698 357.839 L608.698 372.492 L604.416 372.492 L604.416 356.983 Q604.416 353.233 603.096 351.45 Q601.777 349.645 599.022 349.645 Q595.758 349.645 593.837 351.867 Q591.916 354.066 591.916 357.839 L591.916 372.492 L587.633 372.492 L587.633 346.566 L591.916 346.566 L591.916 350.594 Q593.374 348.21 595.411 347.075 Q597.448 345.941 600.249 345.941 Q603.073 345.941 605.041 347.376 Q607.031 348.812 607.98 351.543 Z" fill="#000000" fill-rule="evenodd" fill-opacity="1" /><path clip-path="url(#clip890)" d="M638.096 368.603 L638.096 382.353 L633.814 382.353 L633.814 346.566 L638.096 346.566 L638.096 350.501 Q639.438 348.187 641.476 347.075 Q643.536 345.941 646.383 345.941 Q651.105 345.941 654.045 349.691 Q657.008 353.441 657.008 359.552 Q657.008 365.663 654.045 369.413 Q651.105 373.163 646.383 373.163 Q643.536 373.163 641.476 372.052 Q639.438 370.918 638.096 368.603 M652.587 359.552 Q652.587 354.853 650.642 352.191 Q648.721 349.506 645.341 349.506 Q641.962 349.506 640.017 352.191 Q638.096 354.853 638.096 359.552 Q638.096 364.251 640.017 366.936 Q641.962 369.598 645.341 369.598 Q648.721 369.598 650.642 366.936 Q652.587 364.251 652.587 359.552 Z" fill="#000000" fill-rule="evenodd" fill-opacity="1" /><path clip-path="url(#clip890)" d="M668.281 339.205 L668.281 346.566 L677.054 346.566 L677.054 349.876 L668.281 349.876 L668.281 363.95 Q668.281 367.122 669.137 368.024 Q670.017 368.927 672.679 368.927 L677.054 368.927 L677.054 372.492 L672.679 372.492 Q667.749 372.492 665.874 370.663 Q663.999 368.811 663.999 363.95 L663.999 349.876 L660.874 349.876 L660.874 346.566 L663.999 346.566 L663.999 339.205 L668.281 339.205 Z" fill="#000000" fill-rule="evenodd" fill-opacity="1" /><path clip-path="url(#clip890)" d="M692.702 349.552 Q689.276 349.552 687.285 352.237 Q685.295 354.899 685.295 359.552 Q685.295 364.205 687.262 366.89 Q689.253 369.552 692.702 369.552 Q696.105 369.552 698.096 366.867 Q700.086 364.182 700.086 359.552 Q700.086 354.946 698.096 352.261 Q696.105 349.552 692.702 349.552 M692.702 345.941 Q698.258 345.941 701.429 349.552 Q704.6 353.163 704.6 359.552 Q704.6 365.918 701.429 369.552 Q698.258 373.163 692.702 373.163 Q687.123 373.163 683.952 369.552 Q680.804 365.918 680.804 359.552 Q680.804 353.163 683.952 349.552 Q687.123 345.941 692.702 345.941 Z" fill="#000000" fill-rule="evenodd" fill-opacity="1" /><path clip-path="url(#clip890)" d="M715.873 339.205 L715.873 346.566 L724.646 346.566 L724.646 349.876 L715.873 349.876 L715.873 363.95 Q715.873 367.122 716.73 368.024 Q717.609 368.927 720.271 368.927 L724.646 368.927 L724.646 372.492 L720.271 372.492 Q715.341 372.492 713.466 370.663 Q711.591 368.811 711.591 363.95 L711.591 349.876 L708.466 349.876 L708.466 346.566 L711.591 346.566 L711.591 339.205 L715.873 339.205 Z" fill="#000000" fill-rule="evenodd" fill-opacity="1" /><path clip-path="url(#clip890)" d="M730.248 346.566 L734.507 346.566 L734.507 372.492 L730.248 372.492 L730.248 346.566 M730.248 336.474 L734.507 336.474 L734.507 341.867 L730.248 341.867 L730.248 336.474 Z" fill="#000000" fill-rule="evenodd" fill-opacity="1" /><path clip-path="url(#clip890)" d="M762.077 347.562 L762.077 351.543 Q760.271 350.548 758.442 350.062 Q756.637 349.552 754.785 349.552 Q750.642 349.552 748.35 352.191 Q746.058 354.807 746.058 359.552 Q746.058 364.298 748.35 366.936 Q750.642 369.552 754.785 369.552 Q756.637 369.552 758.442 369.066 Q760.271 368.557 762.077 367.561 L762.077 371.497 Q760.294 372.33 758.373 372.747 Q756.475 373.163 754.322 373.163 Q748.466 373.163 745.017 369.483 Q741.568 365.802 741.568 359.552 Q741.568 353.21 745.04 349.575 Q748.535 345.941 754.6 345.941 Q756.567 345.941 758.442 346.358 Q760.317 346.751 762.077 347.562 Z" fill="#000000" fill-rule="evenodd" fill-opacity="1" /><path clip-path="url(#clip890)" d="M781.266 359.46 Q776.104 359.46 774.114 360.64 Q772.123 361.821 772.123 364.668 Q772.123 366.936 773.604 368.279 Q775.109 369.598 777.678 369.598 Q781.22 369.598 783.35 367.098 Q785.503 364.575 785.503 360.409 L785.503 359.46 L781.266 359.46 M789.762 357.7 L789.762 372.492 L785.503 372.492 L785.503 368.557 Q784.044 370.918 781.868 372.052 Q779.692 373.163 776.544 373.163 Q772.563 373.163 770.202 370.941 Q767.864 368.696 767.864 364.946 Q767.864 360.571 770.78 358.349 Q773.72 356.126 779.53 356.126 L785.503 356.126 L785.503 355.71 Q785.503 352.77 783.558 351.173 Q781.637 349.552 778.141 349.552 Q775.919 349.552 773.813 350.085 Q771.706 350.617 769.762 351.682 L769.762 347.747 Q772.1 346.844 774.299 346.404 Q776.498 345.941 778.581 345.941 Q784.206 345.941 786.984 348.858 Q789.762 351.775 789.762 357.7 Z" fill="#000000" fill-rule="evenodd" fill-opacity="1" /><path clip-path="url(#clip890)" d="M798.535 336.474 L802.794 336.474 L802.794 372.492 L798.535 372.492 L798.535 336.474 Z" fill="#000000" fill-rule="evenodd" fill-opacity="1" /><path clip-path="url(#clip890)" d="M811.706 336.474 L815.965 336.474 L815.965 372.492 L811.706 372.492 L811.706 336.474 Z" fill="#000000" fill-rule="evenodd" fill-opacity="1" /><path clip-path="url(#clip890)" d="M835.664 374.899 Q833.859 379.529 832.146 380.941 Q830.433 382.353 827.562 382.353 L824.16 382.353 L824.16 378.788 L826.66 378.788 Q828.419 378.788 829.391 377.955 Q830.363 377.122 831.544 374.02 L832.308 372.075 L821.822 346.566 L826.336 346.566 L834.437 366.844 L842.539 346.566 L847.053 346.566 L835.664 374.899 Z" fill="#000000" fill-rule="evenodd" fill-opacity="1" /><path clip-path="url(#clip890)" d="M884.53 347.33 L884.53 351.358 Q882.724 350.432 880.78 349.969 Q878.835 349.506 876.752 349.506 Q873.581 349.506 871.984 350.478 Q870.409 351.45 870.409 353.395 Q870.409 354.876 871.544 355.733 Q872.678 356.566 876.104 357.33 L877.562 357.654 Q882.099 358.626 883.997 360.409 Q885.919 362.168 885.919 365.339 Q885.919 368.95 883.048 371.057 Q880.201 373.163 875.201 373.163 Q873.118 373.163 870.849 372.747 Q868.604 372.353 866.104 371.543 L866.104 367.145 Q868.465 368.372 870.757 368.997 Q873.048 369.598 875.294 369.598 Q878.303 369.598 879.923 368.58 Q881.544 367.538 881.544 365.663 Q881.544 363.927 880.363 363.001 Q879.206 362.075 875.247 361.219 L873.766 360.872 Q869.808 360.038 868.048 358.325 Q866.289 356.589 866.289 353.58 Q866.289 349.923 868.882 347.932 Q871.474 345.941 876.243 345.941 Q878.604 345.941 880.687 346.288 Q882.771 346.636 884.53 347.33 Z" fill="#000000" fill-rule="evenodd" fill-opacity="1" /><path clip-path="url(#clip890)" d="M896.914 339.205 L896.914 346.566 L905.687 346.566 L905.687 349.876 L896.914 349.876 L896.914 363.95 Q896.914 367.122 897.77 368.024 Q898.65 368.927 901.312 368.927 L905.687 368.927 L905.687 372.492 L901.312 372.492 Q896.382 372.492 894.507 370.663 Q892.632 368.811 892.632 363.95 L892.632 349.876 L889.507 349.876 L889.507 346.566 L892.632 346.566 L892.632 339.205 L896.914 339.205 Z" fill="#000000" fill-rule="evenodd" fill-opacity="1" /><path clip-path="url(#clip890)" d="M923.071 359.46 Q917.909 359.46 915.918 360.64 Q913.928 361.821 913.928 364.668 Q913.928 366.936 915.409 368.279 Q916.914 369.598 919.483 369.598 Q923.025 369.598 925.155 367.098 Q927.307 364.575 927.307 360.409 L927.307 359.46 L923.071 359.46 M931.567 357.7 L931.567 372.492 L927.307 372.492 L927.307 368.557 Q925.849 370.918 923.673 372.052 Q921.497 373.163 918.349 373.163 Q914.368 373.163 912.006 370.941 Q909.669 368.696 909.669 364.946 Q909.669 360.571 912.585 358.349 Q915.525 356.126 921.335 356.126 L927.307 356.126 L927.307 355.71 Q927.307 352.77 925.363 351.173 Q923.442 349.552 919.946 349.552 Q917.724 349.552 915.618 350.085 Q913.511 350.617 911.567 351.682 L911.567 347.747 Q913.905 346.844 916.104 346.404 Q918.303 345.941 920.386 345.941 Q926.011 345.941 928.789 348.858 Q931.567 351.775 931.567 357.7 Z" fill="#000000" fill-rule="evenodd" fill-opacity="1" /><path clip-path="url(#clip890)" d="M958.951 359.552 Q958.951 354.853 957.006 352.191 Q955.085 349.506 951.705 349.506 Q948.326 349.506 946.381 352.191 Q944.46 354.853 944.46 359.552 Q944.46 364.251 946.381 366.936 Q948.326 369.598 951.705 369.598 Q955.085 369.598 957.006 366.936 Q958.951 364.251 958.951 359.552 M944.46 350.501 Q945.803 348.187 947.84 347.075 Q949.9 345.941 952.747 345.941 Q957.469 345.941 960.409 349.691 Q963.372 353.441 963.372 359.552 Q963.372 365.663 960.409 369.413 Q957.469 373.163 952.747 373.163 Q949.9 373.163 947.84 372.052 Q945.803 370.918 944.46 368.603 L944.46 372.492 L940.178 372.492 L940.178 336.474 L944.46 336.474 L944.46 350.501 Z" fill="#000000" fill-rule="evenodd" fill-opacity="1" /><path clip-path="url(#clip890)" d="M970.432 336.474 L974.691 336.474 L974.691 372.492 L970.432 372.492 L970.432 336.474 Z" fill="#000000" fill-rule="evenodd" fill-opacity="1" /><path clip-path="url(#clip890)" d="M1005.78 358.464 L1005.78 360.548 L986.196 360.548 Q986.474 364.946 988.835 367.261 Q991.219 369.552 995.455 369.552 Q997.909 369.552 1000.2 368.95 Q1002.52 368.348 1004.78 367.145 L1004.78 371.173 Q1002.49 372.145 1000.08 372.654 Q997.677 373.163 995.2 373.163 Q988.997 373.163 985.363 369.552 Q981.751 365.941 981.751 359.784 Q981.751 353.418 985.177 349.691 Q988.626 345.941 994.46 345.941 Q999.691 345.941 1002.72 349.321 Q1005.78 352.677 1005.78 358.464 M1001.52 357.214 Q1001.47 353.719 999.552 351.636 Q997.654 349.552 994.506 349.552 Q990.941 349.552 988.788 351.566 Q986.659 353.58 986.335 357.237 L1001.52 357.214 Z" fill="#000000" fill-rule="evenodd" fill-opacity="1" /><polyline clip-path="url(#clip890)" style="stroke:#ff7e0d; stroke-linecap:round; stroke-linejoin:round; stroke-width:8; stroke-opacity:1; fill:none" points="
  306.541,407.052 476.109,407.052 
  "/>
<path clip-path="url(#clip890)" d="M504.37 414.101 L504.37 398.406 L508.629 398.406 L508.629 413.939 Q508.629 417.619 510.064 419.471 Q511.499 421.3 514.37 421.3 Q517.819 421.3 519.809 419.101 Q521.823 416.901 521.823 413.105 L521.823 398.406 L526.083 398.406 L526.083 424.332 L521.823 424.332 L521.823 420.351 Q520.272 422.712 518.212 423.869 Q516.175 425.003 513.467 425.003 Q508.999 425.003 506.685 422.226 Q504.37 419.448 504.37 414.101 M515.087 397.781 L515.087 397.781 Z" fill="#000000" fill-rule="evenodd" fill-opacity="1" /><path clip-path="url(#clip890)" d="M556.407 408.684 L556.407 424.332 L552.147 424.332 L552.147 408.823 Q552.147 405.142 550.712 403.314 Q549.277 401.485 546.407 401.485 Q542.958 401.485 540.967 403.684 Q538.976 405.883 538.976 409.679 L538.976 424.332 L534.694 424.332 L534.694 398.406 L538.976 398.406 L538.976 402.434 Q540.504 400.096 542.564 398.939 Q544.647 397.781 547.356 397.781 Q551.823 397.781 554.115 400.559 Q556.407 403.314 556.407 408.684 Z" fill="#000000" fill-rule="evenodd" fill-opacity="1" /><path clip-path="url(#clip890)" d="M581.43 399.17 L581.43 403.198 Q579.624 402.272 577.68 401.809 Q575.735 401.346 573.652 401.346 Q570.481 401.346 568.883 402.318 Q567.309 403.29 567.309 405.235 Q567.309 406.716 568.443 407.573 Q569.578 408.406 573.004 409.17 L574.462 409.494 Q578.999 410.466 580.897 412.249 Q582.818 414.008 582.818 417.179 Q582.818 420.79 579.948 422.897 Q577.101 425.003 572.101 425.003 Q570.018 425.003 567.749 424.587 Q565.504 424.193 563.004 423.383 L563.004 418.985 Q565.365 420.212 567.656 420.837 Q569.948 421.438 572.193 421.438 Q575.203 421.438 576.823 420.42 Q578.443 419.378 578.443 417.503 Q578.443 415.767 577.263 414.841 Q576.105 413.915 572.147 413.059 L570.666 412.712 Q566.707 411.878 564.948 410.165 Q563.189 408.429 563.189 405.42 Q563.189 401.763 565.781 399.772 Q568.374 397.781 573.143 397.781 Q575.504 397.781 577.587 398.128 Q579.67 398.476 581.43 399.17 Z" fill="#000000" fill-rule="evenodd" fill-opacity="1" /><path clip-path="url(#clip890)" d="M593.814 391.045 L593.814 398.406 L602.587 398.406 L602.587 401.716 L593.814 401.716 L593.814 415.79 Q593.814 418.962 594.67 419.864 Q595.55 420.767 598.212 420.767 L602.587 420.767 L602.587 424.332 L598.212 424.332 Q593.281 424.332 591.406 422.503 Q589.531 420.651 589.531 415.79 L589.531 401.716 L586.406 401.716 L586.406 398.406 L589.531 398.406 L589.531 391.045 L593.814 391.045 Z" fill="#000000" fill-rule="evenodd" fill-opacity="1" /><path clip-path="url(#clip890)" d="M619.971 411.3 Q614.809 411.3 612.818 412.48 Q610.828 413.661 610.828 416.508 Q610.828 418.776 612.309 420.119 Q613.814 421.438 616.383 421.438 Q619.925 421.438 622.054 418.938 Q624.207 416.415 624.207 412.249 L624.207 411.3 L619.971 411.3 M628.466 409.54 L628.466 424.332 L624.207 424.332 L624.207 420.397 Q622.749 422.758 620.573 423.892 Q618.397 425.003 615.249 425.003 Q611.267 425.003 608.906 422.781 Q606.568 420.536 606.568 416.786 Q606.568 412.411 609.485 410.189 Q612.425 407.966 618.235 407.966 L624.207 407.966 L624.207 407.55 Q624.207 404.61 622.263 403.013 Q620.341 401.392 616.846 401.392 Q614.624 401.392 612.517 401.925 Q610.411 402.457 608.466 403.522 L608.466 399.587 Q610.804 398.684 613.003 398.244 Q615.202 397.781 617.286 397.781 Q622.911 397.781 625.689 400.698 Q628.466 403.615 628.466 409.54 Z" fill="#000000" fill-rule="evenodd" fill-opacity="1" /><path clip-path="url(#clip890)" d="M655.85 411.392 Q655.85 406.693 653.906 404.031 Q651.985 401.346 648.605 401.346 Q645.225 401.346 643.281 404.031 Q641.36 406.693 641.36 411.392 Q641.36 416.091 643.281 418.776 Q645.225 421.438 648.605 421.438 Q651.985 421.438 653.906 418.776 Q655.85 416.091 655.85 411.392 M641.36 402.341 Q642.702 400.027 644.739 398.915 Q646.8 397.781 649.647 397.781 Q654.369 397.781 657.309 401.531 Q660.272 405.281 660.272 411.392 Q660.272 417.503 657.309 421.253 Q654.369 425.003 649.647 425.003 Q646.8 425.003 644.739 423.892 Q642.702 422.758 641.36 420.443 L641.36 424.332 L637.077 424.332 L637.077 388.314 L641.36 388.314 L641.36 402.341 Z" fill="#000000" fill-rule="evenodd" fill-opacity="1" /><path clip-path="url(#clip890)" d="M667.332 388.314 L671.591 388.314 L671.591 424.332 L667.332 424.332 L667.332 388.314 Z" fill="#000000" fill-rule="evenodd" fill-opacity="1" /><path clip-path="url(#clip890)" d="M702.679 410.304 L702.679 412.388 L683.096 412.388 Q683.373 416.786 685.735 419.101 Q688.119 421.392 692.355 421.392 Q694.809 421.392 697.1 420.79 Q699.415 420.188 701.684 418.985 L701.684 423.013 Q699.392 423.985 696.984 424.494 Q694.577 425.003 692.1 425.003 Q685.897 425.003 682.262 421.392 Q678.651 417.781 678.651 411.624 Q678.651 405.258 682.077 401.531 Q685.526 397.781 691.359 397.781 Q696.591 397.781 699.623 401.161 Q702.679 404.517 702.679 410.304 M698.42 409.054 Q698.373 405.559 696.452 403.476 Q694.554 401.392 691.406 401.392 Q687.841 401.392 685.688 403.406 Q683.559 405.42 683.235 409.077 L698.42 409.054 Z" fill="#000000" fill-rule="evenodd" fill-opacity="1" /><polyline clip-path="url(#clip890)" style="stroke:#1f77b4; stroke-linecap:round; stroke-linejoin:round; stroke-width:8; stroke-opacity:1; fill:none" points="
  306.541,458.892 476.109,458.892 
  "/>
<path clip-path="url(#clip890)" d="M504.37 440.154 L508.629 440.154 L508.629 476.172 L504.37 476.172 L504.37 440.154 Z" fill="#000000" fill-rule="evenodd" fill-opacity="1" /><path clip-path="url(#clip890)" d="M517.541 450.246 L521.8 450.246 L521.8 476.172 L517.541 476.172 L517.541 450.246 M517.541 440.154 L521.8 440.154 L521.8 445.547 L517.541 445.547 L517.541 440.154 Z" fill="#000000" fill-rule="evenodd" fill-opacity="1" /><path clip-path="url(#clip890)" d="M550.897 455.223 Q552.495 452.353 554.717 450.987 Q556.939 449.621 559.948 449.621 Q563.999 449.621 566.198 452.468 Q568.397 455.292 568.397 460.524 L568.397 476.172 L564.115 476.172 L564.115 460.663 Q564.115 456.936 562.795 455.13 Q561.476 453.325 558.768 453.325 Q555.457 453.325 553.536 455.524 Q551.615 457.723 551.615 461.519 L551.615 476.172 L547.332 476.172 L547.332 460.663 Q547.332 456.913 546.013 455.13 Q544.694 453.325 541.939 453.325 Q538.675 453.325 536.754 455.547 Q534.833 457.746 534.833 461.519 L534.833 476.172 L530.55 476.172 L530.55 450.246 L534.833 450.246 L534.833 454.274 Q536.291 451.89 538.328 450.755 Q540.365 449.621 543.166 449.621 Q545.99 449.621 547.957 451.056 Q549.948 452.492 550.897 455.223 Z" fill="#000000" fill-rule="evenodd" fill-opacity="1" /><path clip-path="url(#clip890)" d="M576.893 450.246 L581.152 450.246 L581.152 476.172 L576.893 476.172 L576.893 450.246 M576.893 440.154 L581.152 440.154 L581.152 445.547 L576.893 445.547 L576.893 440.154 Z" fill="#000000" fill-rule="evenodd" fill-opacity="1" /><path clip-path="url(#clip890)" d="M594.277 442.885 L594.277 450.246 L603.05 450.246 L603.05 453.556 L594.277 453.556 L594.277 467.63 Q594.277 470.802 595.133 471.704 Q596.013 472.607 598.675 472.607 L603.05 472.607 L603.05 476.172 L598.675 476.172 Q593.744 476.172 591.869 474.343 Q589.994 472.491 589.994 467.63 L589.994 453.556 L586.869 453.556 L586.869 450.246 L589.994 450.246 L589.994 442.885 L594.277 442.885 Z" fill="#000000" fill-rule="evenodd" fill-opacity="1" /><path clip-path="url(#clip890)" d="M642.378 451.242 L642.378 455.223 Q640.573 454.228 638.744 453.742 Q636.938 453.232 635.087 453.232 Q630.943 453.232 628.651 455.871 Q626.36 458.487 626.36 463.232 Q626.36 467.978 628.651 470.616 Q630.943 473.232 635.087 473.232 Q636.938 473.232 638.744 472.746 Q640.573 472.237 642.378 471.241 L642.378 475.177 Q640.596 476.01 638.675 476.427 Q636.776 476.843 634.624 476.843 Q628.767 476.843 625.318 473.163 Q621.869 469.482 621.869 463.232 Q621.869 456.89 625.341 453.255 Q628.837 449.621 634.901 449.621 Q636.869 449.621 638.744 450.038 Q640.619 450.431 642.378 451.242 Z" fill="#000000" fill-rule="evenodd" fill-opacity="1" /><path clip-path="url(#clip890)" d="M660.573 478.579 Q658.767 483.209 657.054 484.621 Q655.341 486.033 652.471 486.033 L649.068 486.033 L649.068 482.468 L651.568 482.468 Q653.327 482.468 654.3 481.635 Q655.272 480.802 656.452 477.7 L657.216 475.755 L646.73 450.246 L651.244 450.246 L659.346 470.524 L667.448 450.246 L671.961 450.246 L660.573 478.579 Z" fill="#000000" fill-rule="evenodd" fill-opacity="1" /><path clip-path="url(#clip890)" d="M696.498 451.242 L696.498 455.223 Q694.693 454.228 692.864 453.742 Q691.059 453.232 689.207 453.232 Q685.063 453.232 682.772 455.871 Q680.48 458.487 680.48 463.232 Q680.48 467.978 682.772 470.616 Q685.063 473.232 689.207 473.232 Q691.059 473.232 692.864 472.746 Q694.693 472.237 696.498 471.241 L696.498 475.177 Q694.716 476.01 692.795 476.427 Q690.897 476.843 688.744 476.843 Q682.887 476.843 679.438 473.163 Q675.989 469.482 675.989 463.232 Q675.989 456.89 679.461 453.255 Q682.957 449.621 689.022 449.621 Q690.989 449.621 692.864 450.038 Q694.739 450.431 696.498 451.242 Z" fill="#000000" fill-rule="evenodd" fill-opacity="1" /><path clip-path="url(#clip890)" d="M703.906 440.154 L708.165 440.154 L708.165 476.172 L703.906 476.172 L703.906 440.154 Z" fill="#000000" fill-rule="evenodd" fill-opacity="1" /><path clip-path="url(#clip890)" d="M739.253 462.144 L739.253 464.228 L719.67 464.228 Q719.947 468.626 722.308 470.941 Q724.693 473.232 728.929 473.232 Q731.382 473.232 733.674 472.63 Q735.989 472.028 738.257 470.825 L738.257 474.853 Q735.966 475.825 733.558 476.334 Q731.151 476.843 728.674 476.843 Q722.47 476.843 718.836 473.232 Q715.225 469.621 715.225 463.464 Q715.225 457.098 718.651 453.371 Q722.1 449.621 727.933 449.621 Q733.165 449.621 736.197 453.001 Q739.253 456.357 739.253 462.144 M734.994 460.894 Q734.947 457.399 733.026 455.316 Q731.128 453.232 727.98 453.232 Q724.415 453.232 722.262 455.246 Q720.132 457.26 719.808 460.917 L734.994 460.894 Z" fill="#000000" fill-rule="evenodd" fill-opacity="1" /></svg>
